<?xml version="1.0" encoding="UTF-8"?>
<svg id="Capa_1" data-name="Capa 1" xmlns="http://www.w3.org/2000/svg" version="1.1" viewBox="0 0 500 952.6">
  <defs>
    <style>
      .cls-1 {
        fill: none;
        isolation: isolate;
        opacity: .5;
        stroke: #fefefe;
        stroke-miterlimit: 10;
      }
    </style>
  </defs>
  <path class="cls-1" d="M.5,609.5c1.7-.5,3.2-.9,3.9-1.2,27.5-9.2,20.2-21.1,34-37.3h0c4.8-5.7,10.5-7.3,14.4-14.5,3.8-7.3,2.5-13.9,5.4-20,.8-1.7,17.2-24.3,19.3-26.6,13.3-15.4,49.3-30.9,50.1-55.4.3-9.2-5-29.4-10.6-37-19.5-26.7-43.7-22.1-65.2-35.1-21.3-12.9-26.4-37.5-51.4-50.7"/>
  <path class="cls-1" d="M.5,609.5"/>
  <path class="cls-1" d="M.5,546.1"/>
  <path class="cls-1" d="M.5,378.9c5.2,6.2,10.1,11.8,13.3,14.3,16.6,13,47.2,16.4,57.6,27.4,4.8,5.1,7.2,18.6,6.9,25.4-.5,12.5-27.5,28.5-36.6,36.6-7.8,7-29.3,33.1-32.4,42.4-1.7,5-.5,9.8-3.5,15.2-.7,1.2-2.8,3.4-5.4,5.9"/>
  <path class="cls-1" d="M.5,378.9"/>
  <path class="cls-1" d="M.5,331.7"/>
  <path class="cls-1" d="M.5,842.7c25.4-.8,70.4-10.2,89.6-17.9,14.3-5.8,26.5-16.6,36.6-28,18-20.4,38.8-47.4,50.4-71.9,4.4-9.3,6.7-20.6,11.3-29.5,4.4-8.5,12.5-15.5,17-23.8,9.7-17.9,6.3-29.1,26.3-41.7,48.6-30.6,84.8-43.4,114.7-97.7,22-39.8,12.3-64.1,13.2-105,.4-17.9,6.1-34,4-52.5h0c-4.8-40.7-85.4-113.7-114.5-145.4-42.6-46.4-64-78.9-123.1-109.6-16.4-8.5-36.7-13.6-51.5-21.6-12.5-6.7-14-12.8-31.4-16.2-13.2-2.5-27.8-3.8-42.5-4.4"/>
  <path class="cls-1" d="M.5,842.7"/>
  <path class="cls-1" d="M.5,792.5"/>
  <path class="cls-1" d="M.5,117c31.4.5,68.1,17.1,94.2,32.3,14.7,8.5,43.9,28,55.8,39.4,21.3,20.5,37.3,51.4,57.9,72.9,6.4,6.6,16.4,13.3,22.8,19.7,17.6,17.6,76.4,75.5,83.5,94.8,4.7,12.6,1.4,14.8,1.3,25.7-.2,31.5,6.8,67-2.1,96.4-7.8,25.9-56.6,60-79.5,75.1-25.7,16.9-42.8,19.9-57.9,50.8-9.1,18.6-13.1,26.4-23.8,44.1-10.9,18-15.6,46.3-27.8,63.9-4.3,6.2-12.4,10.4-17.8,16.2-13.2,14.4-19.9,29.9-40.7,35.7-10.8,3-42.7,9-53.5,9.4-4,.2-8.2-.3-12.4-1"/>
  <path class="cls-1" d="M.5,117"/>
  <path class="cls-1" d="M.5,77.7"/>
  <path class="cls-1" d="M.5,721.5c2.5-.3,4.4-.7,5.6-1,9.2-2.7,32.7-13.8,38.8-20.6h0c8.6-9.5,14.6-36.2,24.9-44.7,15.9-13.2,29-8.6,38.6-32.8,10.8-27.1,8.3-17.5,25.8-37,10-11.1,14.9-27.2,24.7-38.2,15.9-17.8,45.1-34.4,63.8-51.8,3.6-3.3,17.8-16.8,19.6-19.4,12.1-17.1.2-72.4-9.2-91.3-27-54.2-80.7-46.8-112.1-88.4-26.8-35.4-35.5-69.4-82.7-85.5-9.6-3.3-22.9-5.4-37.8-6.4"/>
  <path class="cls-1" d="M.5,721.5"/>
  <path class="cls-1" d="M.5,691.5"/>
  <path class="cls-1" d="M.5,231c.7,0,1.5.1,2.1.2,56.1,5.1,66.9,71.3,104.5,102.8,27.7,23.2,101.9,34.7,108.5,76.9.6,3.9-1.7,6.9-1.4,9.8.9,11,5.3,22.4,3,33.6-2.8,13.6-44.3,44.5-56.8,53.6-9.9,7.2-23.6,12.5-32.2,21.3-6.8,7-10.1,16.5-15.9,24-10.4,13.5-23.8,18.4-29.4,36.9-2.2,7.3-1.7,17.3-5.5,23.4-6.8,10.9-26.1,19.6-34.8,31.5-14.4,19.8-9.9,37.6-40.4,46.2-.5.2-1.1.3-1.7.4"/>
  <path class="cls-1" d="M.5,231"/>
  <path class="cls-1" d="M.5,204.3"/>
  <path class="cls-1" d="M.5,952.1c16.2,0,33.2-1.2,46.3-5.8,8.1-2.8,13.9-7.4,22.8-9.5,29.2-6.8,54,.3,84.5-14,68.1-32.1,127.4-93.6,165-157.8,9.8-16.7,21.8-52.9,31.9-65,5.6-6.8,16.7-12.8,23.7-20.5,10.6-11.7,19.6-26.9,30.5-39.1,11.4-12.8,28-25.2,38.2-38.2,8.5-10.8,11.3-23.3,18-34.6,16.2-27.3,29.9-29.3,35.9-66.1,7.2-44.3-5.7-47.4-15.6-83.5h0c-4.6-16.7-4.7-33.6-10.2-50.9-17.2-54-55.5-126.2-95.9-165.7-3.5-3.4-9.6-6-12.6-9.4-8.2-9.4-14.2-26.1-23.9-37.3-9.6-11.1-20.7-16.1-30.6-25.4-16.1-15-17.8-20.4-38.7-32.6-29.6-17.2-64.9-37-95.1-52.7-29.9-15.4-48.5-10.1-77.9-17.2-22.2-5.4-47-14.6-69.6-20.4C19.9,4.6,10.7,2.5.5.6"/>
  <path class="cls-1" d="M.5,952.1"/>
  <path class="cls-1" d="M.5,902.4"/>
  <path class="cls-1" d="M.5,26.1c31.4,6.9,60.1,18.4,92.3,26.6,15.8,4,32.6,4,48.3,7.8,22.6,5.4,103.8,51.9,127.3,66.4,8.7,5.4,42.1,32.9,49.5,40.6,12.3,12.9,20.4,32.3,32.3,45.9,5,5.7,11.7,9.7,16,14.6,7.9,8.9,36.4,58,42,70.1,19.5,42.4,22.7,72.2,26.9,117.5,2.8,30.4,18.1,54.9,15.2,86.6-1.5,16.8-10.2,24.4-15.3,39-10.8,31.2-4.2,40.1-34.1,62.8-27.5,20.9-59.7,39.3-87.4,60.4-19,20.3-21.8,48.9-32.2,73.1-23.6,54.6-105.1,139.8-166.7,145.9-17.3,1.7-36.9-1.6-54,.4-14.5,1.7-29.7,12.4-45.2,16-5,1.2-9.9,2.1-14.9,2.8"/>
  <path class="cls-1" d="M.5,26.1"/>
  <path class="cls-1" d="M.5.6"/>
</svg>