<?xml version="1.0" encoding="UTF-8"?>
<svg id="Capa_1" data-name="Capa 1" xmlns="http://www.w3.org/2000/svg" viewBox="0 0 608.58 545.11">
  <defs>
    <style>
      .cls-1 {
        fill: #fff;
      }
    </style>
  </defs>
  <path class="cls-1" d="M239.53,247.1c3.22-5.53,6.88-7.52,13.39-9.51,8.82-2.71,16.8-5.46,23.95-11.62,6.7-5.76,11.22-13.53,17.14-19.99,1.66-1.82,1.34-2.01,3.54-2.29,3.94-.51,8.73.73,12.59,1.5.48.09.94.17,1.41.26v-16.7c-14.71-.81-29.18,2.12-39.83,13.9-5.93,6.56-10.44,14.44-17.58,19.75-.09.07-.45.26-.8.45-.32.1-.65.2-.75.22-2.87.63-5.63,1.56-8.39,2.54-4.41,1.57-8.82,3.05-12.96,5.26-6.72,3.58-16.02,10.87-17.76,18.9-.44,2.02,0,4.2-.48,6.32-.48,2.13-1.07,4.13-1.13,6.32-.12,4.74,2.32,8.54,5.41,11.96,6.07,6.75,13.26,11.93,20.38,17.44,3.33,2.56,4.52,5.71,6.68,9.16,2.19,3.49,6.2,5.67,7.35,9.74.95,3.39.38,6.51,2.29,9.6,1.85,2.99,4.69,5.09,7.25,7.45,4.98,4.6,4.97,11.77,10.19,16.37,5.19,4.57,11.46,6.31,17.98,7.09v-29.1c-.21-.35-.39-.72-.64-1.07-3.26-4.57-9.75-6.93-10.44-12.81-.45-3.82-1.14-7.09-3.47-10.28-2.44-3.35-5.44-5.66-7.44-9.4-4.52-8.4-14.15-12.98-21.01-19.43-2.71-2.54-6.9-5.78-8.04-9.42-.73-2.3.15-4.43.67-6.69.46-1.99.53-3.93.5-5.91"/>
  <path class="cls-1" d="M78.65,277.04c1.32,13.5,4.35,23.59,9.29,30.88,1.01,1.5,2.01,3.01,3.01,4.53,5.89,8.92,11.96,18.16,21.55,24.74,3.04,2.08,5.95,4.21,8.83,6.32,7.95,5.8,16.2,11.82,26.13,16.33,7.1,3.23,11.56,6.82,13.63,10.96.94,1.89,1.74,4.01,2.58,6.25,1.26,3.39,2.58,6.88,4.64,10.33,1.44,2.42,3.11,4.44,4.58,6.23,1.64,2,3.05,3.72,3.86,5.54,1.04,2.32,1.91,4.71,2.83,7.25,1.42,3.89,2.89,7.9,5.06,11.97.73,1.37,1.43,2.76,2.15,4.15,1.82,3.58,3.71,7.28,6.02,10.84,1.92,2.97,4.11,5.11,6.05,7,1.27,1.25,2.37,2.33,3.24,3.48,1.14,1.5,2.24,3,3.31,4.48,5.42,7.43,11.02,15.09,20.2,20.88,8.23,5.19,16.75,6.65,24.99,8.06,4.8.82,9.34,1.59,13.64,3.09,5.82,2.01,10.4,2.9,15.52,2.9,1.9,0,3.87-.12,6.02-.36,2.38-.26,4.76-.62,7.13-.98,4.6-.7,8.98-1.35,13.19-1.22,15.12.46,31.69-.41,49.29-2.63,15.29-1.93,29.63-7.04,43.02-12.11,5.13-1.93,10.59-3.17,16.37-4.48,2.43-.56,4.86-1.1,7.27-1.7,4.94-1.24,9.09-2.92,12.25-4.31,4.37-1.25,8.98-2.8,13.19-5.52,7.72-4.96,15.17-12.34,22.78-22.57,3.35-4.51,6.27-9.23,9.1-13.79,2.29-3.68,4.44-7.16,6.8-10.52,1.26-1.81,2.57-3.62,3.89-5.44,5.63-7.79,11.46-15.86,15.25-25.17.05-.12.08-.24.13-.36h-32.42c-1.97,3.24-4.08,6.48-6.25,9.75-4.56,6.92-9.27,14.06-12.98,22.01-3.68,7.88-8.77,16-15.56,24.8-2.44,3.16-6.92,5.48-11.13,7.33-8.04,1.95-16.07,3.42-24.55,4.98l-1.44.26c-8.85,1.63-17.64,4.24-26.13,6.75-3.61,1.07-7.2,2.13-10.76,3.12-12.44,3.41-25.58,2.9-39.51,2.35-11.63-.45-23.65-.93-35.59,1.02-1.29.22-2.59.46-3.89.7-4,.76-7.79,1.49-10.95.9-2.23-.41-4.45-.86-6.67-1.31-3.87-.79-7.87-1.59-11.98-2.22l-2.88-.43c-4.88-.69-9.09-1.29-12.51-3.23-5.19-2.95-8.03-5.94-12.06-11.13-3.22-4.15-7.09-8.09-9.75-10.65-1.19-1.16-2.34-2.12-3.44-3.03-2.22-1.85-3.23-2.69-4.14-4.8l-1.04-2.45c-1.61-3.8-3.27-7.73-5.3-11.67-1.33-2.58-2.34-5.46-3.39-8.5-.99-2.89-2.03-5.89-3.46-8.91-1.62-3.48-3.82-6.05-5.74-8.3-1.35-1.59-2.52-2.95-3.27-4.36-1.09-2.01-1.98-4.46-2.91-7.06-.8-2.19-1.59-4.36-2.52-6.41-5.36-11.96-13.31-20.35-24.3-25.66-7.7-3.72-14.57-8.75-21.82-14.08-3.49-2.56-7.1-5.21-10.85-7.73-2.46-1.67-4.48-3.85-6.8-6.39-1.46-1.59-2.94-3.19-4.56-4.73l-1.67-1.58c-4.85-4.55-7.04-6.75-8.25-11.22-2.89-10.7-4.23-18.25-3.01-27.45,1.51-11.34,1.64-22.04.43-35.78-.92-10.44,6.5-18.06,15.09-26.86,4.94-5.07,9.61-10.4,14.13-15.55,3.64-4.15,7.4-8.44,11.2-12.47,3.31-3.52,7.03-6.73,10.98-10.11,5.85-5.03,11.9-10.23,16.89-16.8,1.84-2.42,3.66-4.86,5.5-7.31,6.42-8.59,13.06-17.47,20.23-25.3,4-4.37,10.21-8.48,15.69-12.12l1.06-.7c2.26-1.5,4.45-3.06,6.65-4.62,3.85-2.75,7.49-5.34,11.31-7.46,6.48-3.58,13.33-6.47,20.58-9.52,4.4-1.85,8.94-3.75,13.36-5.83.69-.32,1.33-.73,1.89-1.21,1.42-.06,2.83-.11,4.22-.14l3.28-.11c1.48-.05,2.99-.16,4.51-.26,3.21-.22,6.23-.41,8.93-.2,2.06.16,4.16.64,6.38,1.14,2.97.67,6.34,1.43,10.18,1.57,1.26.04,2.6.06,3.85.04,3.01,0,5.94,0,8.05.71,1.48.49,3.2,1.46,5.02,2.48,1.82,1.02,3.88,2.18,6.12,3.08,8.08,3.28,14.6,7.53,22.16,12.47,1.54,1,3.09,2.02,4.69,3.04,8.1,5.2,16.78,9.01,25.17,12.7,8.83,3.89,17.19,7.56,24.62,12.62,3.55,2.42,7.09,4.27,10.53,6.07,5.67,2.96,10.57,5.54,14.34,9.99,3.2,3.78,10.7,12.62,14.01,19.3.42.84.76,2.08,1.12,3.4.44,1.59.93,3.38,1.75,5.25,1.78,4.09,3.98,7.68,6.11,11.15l1.5,2.45c1.5,2.49,2.91,5.17,4.42,8.01h33.2c-.23-.24-.47-.47-.71-.72-1.54-1.58-2.79-3.58-4.24-5.89-.89-1.42-1.78-2.86-2.77-4.25-1.77-2.52-3.63-4.98-5.5-7.45-1.57-2.09-3.14-4.17-4.66-6.29-2.19-3.06-3.49-6.14-5-9.69-.64-1.52-1.31-3.08-2.06-4.69-3.03-6.56-7.78-12.49-11.97-17.73l-1.69-2.11c-8.22-10.37-15.97-16.81-25.89-21.53-3.84-1.83-7.47-3.96-11.3-6.21-4.96-2.91-10.09-5.92-15.87-8.35-2.01-.84-4.04-1.67-6.07-2.51-8.67-3.55-17.64-7.21-25.36-12.03-2.32-1.44-4.55-3.09-6.92-4.85-2.88-2.12-5.87-4.34-9.22-6.31-4.57-2.7-9.13-4.65-13.54-6.54l-2.34-1.01c-1.54-.67-3.03-1.49-4.51-2.3-3.3-1.8-7.04-3.83-11.51-4.81-4.57-.99-8.98-.85-12.88-.73-1.6.05-3.21.11-4.82.07-1.58-.04-3.29-.29-5.11-.55-2.85-.41-6.06-.89-9.6-.65-3.21.21-6.32.62-9.34,1.02-2.64.35-5.28.7-7.92.89l-1.89.13c-7.86.5-18.61,1.18-25.69,9.44-.06.06-.13.14-.18.21-17.9,5.89-35.3,14.48-50.57,25.02-11.09,7.65-21.14,16.38-29.87,25.95-3.76,4.13-7.19,8.37-10.52,12.47-5.04,6.22-9.79,12.09-15.44,17.39-9.68,9.06-18.22,18.87-27.57,29.86-2.31,2.71-4.79,5.4-7.31,8.13-6.88,7.46-13.99,15.18-18.93,24.35-7.29,13.54-5.14,25.6-3.25,36.23,1.06,5.97.53,12.07-.04,18.52-.52,5.96-1.06,12.12-.41,18.7"/>
  <path class="cls-1" d="M362.85,156.34c-.94-2.14-1.72-4.28-2.48-6.36-2.78-7.61-5.65-15.49-15.08-20.42-9.46-4.94-22.45-7.65-38.62-8.03-2.79-.07-5.55-.21-8.31-.34-9-.45-18.33-.9-27.98,1.24-8.38,1.85-20.24,5.89-29.17,14.57-7.54,7.34-13.11,16.12-18.52,24.61-3.3,5.2-6.71,10.57-10.47,15.43-5.72,7.35-15.55,11.75-25.06,16.01-4.17,1.86-8.48,3.8-12.35,5.94-26.82,14.91-34.28,47.52-29.78,73.24.34,1.92,1.59,3.53,3.37,4.31.47.22.98.37,1.49.44.8,1.09,1.66,2.15,2.58,3.17,5.53,6.13,11.44,10.87,17.71,15.88,1.5,1.21,3.02,2.43,4.54,3.67,1.95,1.59,4.04,3.18,6.17,4.79,5.5,4.17,11.18,8.47,14.92,13.45,1.91,2.54,3.32,5.14,4.82,7.9,2.64,4.86,5.38,9.91,10.85,14.19,5.03,3.94,7.32,5.92,9.07,11.47l.66,2.17c1.04,3.44,2.1,7,4.36,10.46,1.99,3.05,6.39,5.4,11.49,8.12,3.24,1.74,9.29,4.95,10.01,6.88,1.19,3.09,2.13,5.54,3.94,8.54l.71,1.16c.9,1.5,1.91,3.18,3.04,4.77.29,2.5,1.15,5.49,4,8.34,3.64,3.61,8.66,5.85,13.11,7.83,1.31.58,2.59,1.16,3.79,1.74,8.72,4.27,18.35,3.97,27.68,3.65,3.16-.1,6.15-.19,9.02-.11,2.16.06,4.26.35,6.48.65,2.59.37,5.24.73,8.06.73,1.28,0,2.61-.07,3.97-.26,3.81-.52,5.77-1.4,7.27-3.35.34-.07.99-.16,2.13-.22,4.23-.23,8.32-.97,12.28-1.68,2.4-.44,4.81-.88,7.24-1.18,7.27-.94,13.8-2.88,19.91-5.91,9.32-4.63,17.32-11.17,25.07-17.49,4-3.27,8.15-6.65,12.35-9.65,1.42-1.02,2.96-1.96,4.48-2.9.89-.56,1.78-1.11,2.67-1.68h-34.21c-7.96,6.97-16.2,14.14-25.67,17.56-2.86,1.03-5.16,1.89-7.13,2.64-7.17,2.7-9.84,3.7-20.18,5.48l-1.55.26c-6,1.05-10.73,1.85-16.72,1.17-2.54-.3-5.08-.39-7.6-.39-1.87,0-3.74.05-5.58.1-3.57.1-7.13.1-10.36.22-5.28.22-9.47.37-14.44-1.75l-1.03-.44c-6.86-2.9-11.39-4.82-13.66-11.13-.45-1.24-1.24-2.25-2.25-2.93-1.07-2.53-1.99-5.11-2.88-7.56-1.76-4.91-7.05-9.04-12.65-13.42-4.56-3.57-10.23-7.99-10.66-10.99l-.14-.95c-1.15-7.9-2.23-15.36-9.13-21.88-1.15-1.09-2.31-2.08-3.48-3.05-2.14-1.78-4-3.33-5.5-5.45-1.06-1.49-1.99-3.09-2.98-4.79-1.08-1.88-2.21-3.82-3.57-5.69-3.82-5.26-8.7-8.1-13.43-10.84-2.3-1.34-4.48-2.61-6.57-4.16l-2.78-2.04c-6.65-4.91-13.52-9.98-19.22-15.31l-1.57-1.45c-5.67-5.24-11.04-10.19-10.59-17.23.13-2.09.5-4.18.89-6.41.42-2.4.85-4.87,1-7.46.11-1.68-.13-3.35-.37-4.95-.06-.41-.13-.82-.17-1.22,3.39-8.62,10.27-19.75,24.01-25.63,2.18-.93,4.34-1.97,6.49-3.02,2.87-1.38,5.58-2.7,8.36-3.76,1.34-.5,2.66-.95,3.97-1.39,3.43-1.16,6.99-2.36,10.5-4.52,9.38-5.8,16.1-12.51,23.19-23.16,1.82-2.73,3.63-5.56,5.45-8.43,4.54-7.13,9.24-14.52,14.47-20.71,6.17-7.32,16.34-11.86,27.89-12.45,8.9-.47,18.27.02,28.65,1.42l3.44.45c4.71.61,9.58,1.24,14,2.47,8.55,2.38,12.5,6.45,14.56,15,2.54,10.54,8.89,21.59,17.7,31.52h25.65c-1.49-1.18-2.99-2.42-4.51-3.72-5.81-4.95-16.28-14.91-21.07-25.81"/>
  <path class="cls-1" d="M502.19,441.37c-3.65,6.23-8.4,9.14-13.54,13.87-5.15,4.75-10.2,10.54-16.37,13.95-6.61,3.65-13.66,6.15-20.15,10.15-6.78,4.17-13.63,7.39-20.84,10.73-6.1,2.84-12.85,4.9-18.47,8.64-5.7,3.81-10.88,7.68-16.82,11.18-4.86,2.87-8.9,6.73-14.04,8.92-.94.17-1.89.34-2.84.47-5.89.86-11.81,1.73-17.7,2.51-12.09,1.59-23.75-1.87-35.81-1.84-4.58.02-9.45-.08-14,.35-5.02.47-9.52-.89-14.65-1.12-9.93-.44-22.21-1.58-31.4-5.51-5.55-2.38-9.36-4.98-15.58-5.83-5.34-.73-10.8-1.07-16.18-.77-11.82.63-21.49.55-32.15-4.6-10.97-5.3-20.81-9.91-29.95-18.18-9.67-8.74-19.26-17.72-27.62-27.72-6.83-8.19-12.55-17.66-18.02-26.82-2.15-3.6-3.74-7.43-4.94-11.43-2.03-6.79-4.44-13.22-6.96-19.86-4.09-10.79-10.09-18.17-20.37-23.63-9.77-5.19-17.36-13.19-26.74-18.87-8.08-4.9-19.08-11.99-24.25-20.29-5.72-9.2-4.69-20.5-10.03-29.7-2.9-4.99-5.34-8.04-5.49-13.88-.11-4.44-.53-8.84-.31-13.28.57-11.58,6.45-21.61,7.71-33.11,1.49-13.45.08-25.63,4.51-38.65,4.37-12.9,8.18-27.23,14.47-39.33,3.07-5.89,7.82-11.04,11.25-16.77,3-5.01,4.71-10.4,8.25-15.06.82-1.07,1.63-2.14,2.44-3.22,3.11-2.54,6.15-5.26,8.65-8.15,8.88-10.27,13.05-23.53,24.92-31.08,4.93-3.14,8.85-6,12.56-10.55,4.07-4.99,9.4-7.45,15.08-10.22,12.26-5.99,23.86-13.42,36.01-19.51,11.9-5.97,20.93-14.19,34.59-16.09,11.42-1.59,22.22-2.03,32.73-7,6.32-2.99,13.12-4.2,19.99-5.12,6.09-.82,8.93-2.8,14.4-5.29.44-.2.9-.37,1.33-.56,5.23-.8,10.53-1.42,15.94-1.99,6.83-.72,13.99-2.03,20.83-2.15,6.23-.11,13.48,3.4,19.56,4.97,6.79,1.75,12.72,5.42,19.58,6.96,7.17,1.6,14.43,1.42,21.67,2.19,4.17.44,11.17,1.5,13.65,1.76,3.61.38,11.13,1.3,15.97,3.06,6.25,2.28,12.13,5.38,18.52,7.31,7.53,2.27,14.92,4.17,22.12,7.45,12.97,5.92,21.88,17.36,31.22,27.85,7.69,8.64,16.02,16.69,23.19,25.69,4.01,5.04,7.13,10.46,10.54,15.91,3.91,6.25,8.88,11.7,12.33,18.22,6.41,12.1,13.02,22.71,16.59,36.21,1.25,4.77,2.81,8.87,3.62,13.32h26.39c-.57-1.77-1.23-3.52-2.04-5.21-2.61-5.45-5.54-9.49-7.27-15.15-2.4-7.9-5.57-15.95-9.4-23.27-6.77-12.95-16.55-24.01-23.98-36.53-3.7-6.23-6.26-12.58-9.1-19.19-2.56-5.95-6.79-10.89-11.19-15.63-10.59-11.4-22.68-21.7-35.66-30.29-13.02-8.6-27.11-12.6-41.91-16.85-8.45-2.42-16.49-6.03-24.03-10.39-3.01-1.74-6.58-2.78-8.04-3.37-2.16-.88-11.04-4.99-4.93-1.45-7.08-4.09-13.74-5.05-21.83-4.75-4.52.17-9.13.35-13.65,0-4.79-.39-9.35-1.9-14.13-2.28C332.63.88,324.14-.03,316.35,0c-3.12.02-5.4.94-8.34,1.84-4.86,1.49-9.77,1.97-14.78,2.67-9.29,1.29-18.72,2.47-27.81,4.78-3.74.95-7.13,2.53-10.41,4.34-3.27,0-6.49.19-9.98.88-6.25,1.25-11.34,4.45-17.4,5.89-6.65,1.59-14.07,1.44-20.9,2.37-13.11,1.78-22.29,6.83-33.14,13.89-5.48,3.57-11.64,6.06-17.23,9.51-6.41,3.99-13.47,7.07-20.1,10.71-5.84,3.22-11.32,5.8-16.77,9.65-5.46,3.86-8.21,9.67-13.42,13.64-4.77,3.65-9.6,6.4-13.65,10.99-3.94,4.47-7.05,9.35-10,14.49-1.66,2.88-3.34,5.72-5.04,8.54-1.21.83-2.43,1.64-3.62,2.45-4.78,3.21-8.47,7.44-12.31,11.73-3.64,4.07-5.62,8.74-8.73,13.17-3.42,4.86-7.32,9.41-10.73,14.29-7.52,10.73-11.43,24.88-17.05,36.71-5.57,11.73-10.37,21.81-12.23,34.8-.85,5.91-1.52,12.15-3.62,17.77-2.36,6.36-5.67,12.15-7.47,18.74-3.3,12.15-1.05,23.42,1.95,35.36,2.92,11.63,13.32,18.91,18.92,29.18,2.45,4.51,4.01,9.43,6.52,13.89,2.48,4.41,6.1,7.59,9.58,11.2,9,9.35,18.83,17.82,26.11,28.61,3.41,5.06,7.13,9.33,11.7,13.45,3.68,3.31,7.98,5.12,10.02,9.68,5.12,11.44,10.19,22.95,16.4,33.9,2.68,4.72,5.96,8.9,9,13.37,3.08,4.52,5.35,9.54,8.67,13.91,8.57,11.26,19.03,20.78,29.27,30.46,10.53,9.95,20.99,17.23,33.71,24.08,5.15,2.77,10.09,6.31,15.43,8.71,6.21,2.79,13.35,3.91,20.05,4.7,11.04,1.31,23.67-.13,32.79,4.96,12.46,6.93,27.41,6.06,41.22,5.2,6.45-.4,13.28-.46,19.55-1.73,6.27-1.27,12.44-2.07,18.86-1.67,7.07.45,13.94,1.74,21.06,1.71,4.79-.02,9.41-.57,14.05-1.24,10,4.2,20.27,5.21,30.85-.2,5.84-2.99,10.8-7.19,16.7-10.15,6.1-3.05,11.18-8.15,17.44-10.61,13.83-5.44,28.2-11.3,40.07-20.47,11.53-8.9,20.99-19.97,31.77-29.7,4.81-4.34,9.67-7.78,13.69-13.01,4.23-5.49,7.26-12.05,12.21-16.96,5.15-5.1,10.97-9.26,14.86-15.5,4.58-7.35,7.78-15.92,10.54-24.1,3.16-9.4,4.43-19.1,5.82-28.81h-24.6c-7.61,24.79-20.58,46.89-33.67,69.25"/>
  <path class="cls-1" d="M314.24,351.66v-24.35h9.75c2.46,0,4.57.44,6.32,1.32,1.76.88,3.1,2.2,4.05,4,.95,1.78,1.42,4.08,1.42,6.86s-.47,5.05-1.42,6.85c-.95,1.79-2.29,3.14-4.05,4-1.75.88-3.85,1.32-6.32,1.32h-9.75ZM318.85,347.72h5.14c1.14,0,2.14-.16,3.02-.49.88-.33,1.61-.82,2.2-1.48.59-.65,1.04-1.47,1.34-2.45.3-.98.46-2.12.46-3.42v-.74c0-1.33-.15-2.48-.46-3.47-.3-.98-.75-1.79-1.34-2.45-.59-.65-1.33-1.15-2.2-1.48-.88-.32-1.88-.49-3.02-.49h-5.14v16.46Z"/>
  <polygon class="cls-1" points="342.73 351.66 342.73 327.31 361.71 327.31 361.71 331.25 347.34 331.25 347.34 337.26 360.15 337.26 360.15 341.2 347.34 341.2 347.34 347.72 361.92 347.72 361.92 351.66 342.73 351.66"/>
  <path class="cls-1" d="M378.32,352.09c-1.35,0-2.64-.15-3.87-.45-1.23-.3-2.32-.75-3.26-1.38-.95-.63-1.69-1.41-2.24-2.35-.55-.93-.82-2.03-.82-3.31,0-.14,0-.29.02-.42,0-.14.02-.25.02-.32h4.65s0,.13-.02.27c0,.13-.02.23-.02.33,0,.78.22,1.45.68,2.01.44.56,1.09.99,1.94,1.28.85.29,1.85.44,3.02.44.78,0,1.47-.04,2.08-.14.6-.09,1.12-.23,1.56-.4.44-.18.8-.39,1.08-.64.29-.24.49-.52.62-.83.13-.3.2-.64.2-.99,0-.68-.21-1.25-.64-1.7-.43-.45-1-.82-1.72-1.13-.73-.31-1.54-.59-2.45-.84-.91-.24-1.85-.5-2.8-.76-.96-.26-1.89-.57-2.8-.93-.91-.37-1.73-.82-2.45-1.33-.73-.52-1.3-1.18-1.72-1.97-.43-.79-.64-1.75-.64-2.86s.25-2.13.73-2.98c.48-.85,1.17-1.55,2.06-2.11.88-.55,1.92-.97,3.1-1.24,1.18-.27,2.47-.41,3.87-.41,1.3,0,2.53.14,3.67.41,1.15.27,2.16.7,3.03,1.27.88.58,1.57,1.32,2.06,2.2.5.89.75,1.94.75,3.18v.42h-4.58v-.36c0-.68-.21-1.26-.63-1.73-.41-.47-.99-.84-1.74-1.1-.74-.26-1.61-.39-2.61-.39-1.07,0-1.97.1-2.73.3-.76.21-1.34.5-1.74.9-.4.39-.61.87-.61,1.43s.22,1.09.64,1.5c.43.4,1,.74,1.73,1.02.72.29,1.54.55,2.45.79.91.23,1.85.48,2.8.76.96.27,1.9.58,2.8.94.91.36,1.73.8,2.45,1.33.73.54,1.3,1.19,1.72,1.97.43.78.64,1.72.64,2.8,0,1.82-.45,3.29-1.33,4.4-.89,1.12-2.11,1.92-3.65,2.41-1.55.5-3.31.75-5.3.75"/>
  <path class="cls-1" d="M393.05,351.66l9.47-24.34h5.82l9.51,24.34h-5.01l-1.94-5.18h-11.14l-1.95,5.18h-4.76ZM401.21,342.57h8.2l-2.45-6.6c-.1-.23-.21-.53-.34-.9-.13-.37-.27-.77-.4-1.2-.14-.44-.29-.88-.43-1.33-.14-.45-.27-.85-.39-1.2h-.18c-.14.47-.31,1.01-.52,1.63-.2.61-.39,1.19-.58,1.74-.19.55-.34.97-.46,1.27l-2.45,6.6Z"/>
  <path class="cls-1" d="M423.38,351.66v-24.35h12.81c1.8,0,3.29.31,4.47.92,1.18.62,2.07,1.5,2.66,2.62.59,1.14.89,2.48.89,4.01s-.35,2.99-1.07,4.21c-.71,1.21-1.75,2.13-3.12,2.74l5.03,9.84h-5.03l-4.47-9.05h-7.56v9.05h-4.61ZM428,338.75h7.84c1.19,0,2.1-.34,2.73-1.03.64-.69.96-1.63.96-2.84,0-.78-.13-1.43-.42-1.97-.29-.53-.7-.94-1.25-1.22-.55-.29-1.22-.43-2.02-.43h-7.84v7.49Z"/>
  <path class="cls-1" d="M451.49,351.66v-24.35h12.81c1.8,0,3.29.31,4.47.92,1.18.62,2.07,1.5,2.66,2.62.59,1.14.89,2.48.89,4.01s-.35,2.99-1.07,4.21c-.71,1.21-1.75,2.13-3.12,2.74l5.03,9.84h-5.03l-4.47-9.05h-7.56v9.05h-4.61ZM456.1,338.75h7.84c1.19,0,2.1-.34,2.73-1.03.64-.69.96-1.63.96-2.84,0-.78-.13-1.43-.42-1.97-.29-.53-.7-.94-1.25-1.22-.55-.29-1.22-.43-2.02-.43h-7.84v7.49Z"/>
  <path class="cls-1" d="M490.59,352.09c-2.54,0-4.72-.46-6.57-1.37-1.85-.9-3.25-2.3-4.24-4.17-.98-1.87-1.47-4.23-1.47-7.06s.49-5.22,1.47-7.09c.99-1.85,2.39-3.24,4.24-4.15,1.85-.91,4.03-1.37,6.57-1.37s4.75.46,6.58,1.37c1.84.9,3.24,2.29,4.23,4.15.98,1.86,1.47,4.22,1.47,7.09s-.49,5.19-1.47,7.06c-.99,1.86-2.39,3.26-4.23,4.17-1.84.91-4.02,1.37-6.58,1.37M490.59,348.18c1.24,0,2.31-.17,3.24-.53.94-.36,1.73-.89,2.36-1.59.64-.7,1.12-1.56,1.45-2.59.33-1.03.5-2.22.5-3.57v-.78c0-1.37-.17-2.58-.5-3.62-.33-1.04-.82-1.91-1.45-2.62-.64-.69-1.42-1.22-2.36-1.57-.93-.36-2.01-.54-3.24-.54s-2.31.18-3.24.54c-.94.35-1.72.88-2.36,1.57-.64.71-1.12,1.58-1.43,2.62-.32,1.04-.48,2.25-.48,3.62v.78c0,1.34.16,2.53.48,3.57.31,1.03.8,1.89,1.43,2.59.64.7,1.42,1.23,2.36,1.59.93.36,2.02.53,3.24.53"/>
  <polygon class="cls-1" points="509.82 351.66 509.82 327.31 514.43 327.31 514.43 347.66 526.64 347.66 526.64 351.66 509.82 351.66"/>
  <polygon class="cls-1" points="532.71 351.66 532.71 327.31 537.32 327.31 537.32 347.66 549.53 347.66 549.53 351.66 532.71 351.66"/>
  <path class="cls-1" d="M565.71,352.09c-2.54,0-4.72-.46-6.56-1.37-1.85-.9-3.26-2.3-4.25-4.17-.98-1.87-1.47-4.23-1.47-7.06s.49-5.22,1.47-7.09c.99-1.85,2.39-3.24,4.25-4.15,1.84-.91,4.02-1.37,6.56-1.37s4.75.46,6.58,1.37c1.84.9,3.24,2.29,4.23,4.15.98,1.86,1.47,4.22,1.47,7.09s-.49,5.19-1.47,7.06c-.99,1.86-2.39,3.26-4.23,4.17-1.84.91-4.02,1.37-6.58,1.37M565.71,348.18c1.24,0,2.31-.17,3.24-.53.94-.36,1.73-.89,2.36-1.59.64-.7,1.12-1.56,1.45-2.59.33-1.03.5-2.22.5-3.57v-.78c0-1.37-.17-2.58-.5-3.62-.33-1.04-.82-1.91-1.45-2.62-.64-.69-1.42-1.22-2.36-1.57-.93-.36-2.01-.54-3.24-.54s-2.31.18-3.24.54c-.94.35-1.72.88-2.36,1.57-.64.71-1.12,1.58-1.43,2.62-.32,1.04-.48,2.25-.48,3.62v.78c0,1.34.16,2.53.48,3.57.31,1.03.8,1.89,1.43,2.59.64.7,1.42,1.23,2.36,1.59.93.36,2.02.53,3.24.53"/>
  <path class="cls-1" d="M594.02,352.09c-1.35,0-2.64-.15-3.87-.45-1.23-.3-2.32-.75-3.26-1.38-.95-.63-1.69-1.41-2.24-2.35-.55-.93-.82-2.03-.82-3.31,0-.14,0-.29.02-.42,0-.14.02-.25.02-.32h4.65s0,.13-.02.27c0,.13-.02.23-.02.33,0,.78.22,1.45.68,2.01.44.56,1.09.99,1.94,1.28.85.29,1.85.44,3.02.44.78,0,1.47-.04,2.08-.14.6-.09,1.12-.23,1.56-.4.44-.18.8-.39,1.08-.64.29-.24.49-.52.62-.83.13-.3.2-.64.2-.99,0-.68-.21-1.25-.64-1.7-.43-.45-1-.82-1.72-1.13-.73-.31-1.54-.59-2.45-.84-.91-.24-1.85-.5-2.8-.76-.96-.26-1.89-.57-2.8-.93-.91-.37-1.73-.82-2.45-1.33-.73-.52-1.3-1.18-1.72-1.97-.43-.79-.64-1.75-.64-2.86s.25-2.13.73-2.98c.48-.85,1.17-1.55,2.06-2.11.88-.55,1.92-.97,3.1-1.24,1.18-.27,2.47-.41,3.87-.41,1.3,0,2.53.14,3.67.41,1.15.27,2.16.7,3.03,1.27.88.58,1.57,1.32,2.06,2.2.5.89.75,1.94.75,3.18v.42h-4.58v-.36c0-.68-.21-1.26-.63-1.73-.41-.47-.99-.84-1.74-1.1-.74-.26-1.61-.39-2.61-.39-1.07,0-1.97.1-2.73.3-.76.21-1.34.5-1.74.9-.4.39-.61.87-.61,1.43s.22,1.09.64,1.5c.43.4,1,.74,1.73,1.02.72.29,1.54.55,2.45.79.91.23,1.85.48,2.8.76.96.27,1.9.58,2.8.94.91.36,1.73.8,2.45,1.33.73.54,1.3,1.19,1.72,1.97.43.78.64,1.72.64,2.8,0,1.82-.45,3.29-1.33,4.4-.89,1.12-2.11,1.92-3.65,2.41-1.55.5-3.31.75-5.3.75"/>
  <path class="cls-1" d="M311.55,303.65h297.03v-117.79h-297.03v117.79ZM400.05,249.11c0,3.5-.47,14.42-7.65,21.51-5.38,5.38-12.02,6.86-18.51,6.86s-13.2-1.33-18.89-7.01c-1.79-1.79-7.73-8.34-7.73-20.04,0-10.05,4.53-16.21,7.65-19.33,3.91-3.98,10.46-7.95,20.54-7.95,3.91,0,8.04.62,12.02,2.73,3.36,1.71,7.02,4.83,9.76,9.5l-8.82,4.76c-1.8-3.51-4.45-5.3-6.09-6.16-2.19-1.09-4.92-1.63-7.35-1.63-4.13,0-8.82,1.48-12.02,4.6-2.96,2.88-5.23,7.87-5.23,13.72,0,6.93,2.96,11.06,5.15,13.17,2.35,2.27,6.02,4.44,11.56,4.44,3.44,0,7.35-.93,10.23-3.12,2.03-1.56,4.06-4.21,4.93-7.95h-13.44v-8.73h23.89v.63ZM466.29,277.48c-8.83-2.67-22.97-10.64-24.52-20.95h-9.09v20.95h-10.58v-55.69h25.29c9.59,0,17.37,7.78,17.37,17.37,0,8.06-5.51,14.83-12.96,16.79,2.75,6.61,7.51,8.98,14.49,11.15v10.38ZM499.42,277.48h-11.1v-55.22h11.1v55.22ZM566.6,233.36h-17.02v44.12h-11.1v-44.12h-17.03v-11.1h45.15v11.1ZM454.18,239.15c0,4.75-3.85,8.6-8.6,8.6h-12.9v-17.2h12.9c4.75,0,8.6,3.85,8.6,8.6"/>
</svg>