<?xml version="1.0" encoding="UTF-8"?>
<svg id="Capa_1" data-name="Capa 1" xmlns="http://www.w3.org/2000/svg" viewBox="0 0 609.42 21.34">
  <defs>
    <style>
      .cls-1 {
        fill: #ebebeb;
      }
    </style>
  </defs>
  <path class="cls-1" d="M61.38,21.34c-8.39,0-16.74-2.33-24.88-4.6-11.98-3.34-23.28-6.49-33.27-1.89L0,7.88c12.55-5.8,25.77-2.11,38.57,1.45,10.5,2.93,20.41,5.69,29.82,3.58,3.39-.76,6.65-2.17,10.11-3.65,2.4-1.03,4.88-2.1,7.47-2.96,16.65-5.57,33.85-1.94,50.49,1.57,9.91,2.1,20.17,4.26,30.04,4.38,12.34.15,24.3-2.81,36.93-5.94,9.48-2.35,19.28-4.77,29.25-5.75,12.35-1.21,24.81-.18,36.85.81l2.23.18c62.74,5.15,125.41,6.32,173,6.77,9.58.09,19.51.18,29.09-1.77,2.72-.55,5.39-1.26,8.07-1.98,3.7-.98,7.53-2,11.48-2.61,8.95-1.39,17.86-.66,26.49.04l89.53,7.3-.62,7.67-89.53-7.3c-8.19-.67-16.64-1.36-24.68-.11-3.55.55-7.01,1.47-10.68,2.45-2.76.73-5.62,1.49-8.52,2.08-10.39,2.11-21.18,2.01-30.7,1.92-47.72-.45-110.57-1.63-173.55-6.79l-2.23-.18c-11.7-.97-23.79-1.96-35.46-.83-9.41.92-18.94,3.28-28.15,5.56-12.55,3.11-25.59,6.35-38.87,6.16-10.63-.12-21.26-2.37-31.54-4.54-16.34-3.46-31.78-6.71-46.45-1.8-2.28.77-4.51,1.72-6.87,2.74-3.62,1.56-7.38,3.17-11.46,4.09-2.9.65-5.8.93-8.7.93Z"/>
</svg>