<?xml version="1.0" encoding="UTF-8"?>
<svg id="Capa_1" data-name="Capa 1" xmlns="http://www.w3.org/2000/svg" viewBox="0 0 993.95 956.74">
  <defs>
    <style>
      .cls-1 {
        fill: none;
        opacity: .5;
        stroke: #fefefe;
        stroke-miterlimit: 10;
      }
    </style>
  </defs>
  <path class="cls-1" d="M907.33,724c-38.19,73.34-63.35,89.57-135.48,126.52-12.9,6.61-28.65,11.21-41.28,17.88-17.64,9.3-41.56,31.8-57.89,38.46-27.37,11.15-63.76,4.02-91.57,2.95-33.28-1.27-65.79,1.92-98.98-5.83-15.41-3.6-30.51-14.21-44.96-15.89-17.01-1.98-36.45,1.34-53.71-.39-61.25-6.13-142.35-90.82-165.84-145.18-10.41-24.08-13.21-52.49-32.09-72.71-27.54-20.96-59.59-39.27-86.98-60.08-29.68-22.56-23.18-31.38-33.9-62.44-5.04-14.61-13.72-22.09-15.24-38.85-2.86-31.53,12.36-55.98,15.17-86.19,4.18-45.02,7.4-74.69,26.78-116.89,5.54-12.08,33.99-60.88,41.8-69.75,4.27-4.85,10.99-8.87,15.92-14.51,11.78-13.5,19.88-32.82,32.12-45.63,7.3-7.65,40.55-35.04,49.21-40.38,23.37-14.43,104.1-60.66,126.62-66.08,15.65-3.76,32.32-3.7,48.08-7.71,44.6-11.36,82.62-29.16,130.31-31.97,35.86-2.11,55.52,15.97,86.62,21.53,24.52,4.38,52.55,2.06,77.2,9.01,38.37,16.58,77.9,19.79,109.15,49.74,34.69,33.25,73.58,81.78,98.76,122.67,17.83,28.96,32.61,59.34,39.87,92.82h-85.37c-10.07-14.77-24.86-30.65-33.67-45.77-10.17-17.46-14.17-31.17-27.36-48.7-40.03-53.23-91.03-61.75-145.49-91.15-30.62-16.53-69.65-50.83-106.23-52.65-29.29-1.46-65.15-1.81-94.2,3.79-17.28,3.33-18.83,9.4-31.25,16.08-14.69,7.9-34.94,13.02-51.21,21.47-58.83,30.57-80.07,62.86-122.5,109.08-29,31.59-109.16,104.23-113.95,144.67-2.18,18.41,3.54,34.46,3.94,52.22.92,40.72-8.73,64.85,13.11,104.46,29.77,53.98,65.76,66.76,114.1,97.18,19.89,12.52,16.5,23.64,26.17,41.44,4.47,8.22,12.52,15.26,16.9,23.67,4.6,8.84,6.9,20.09,11.25,29.31,11.5,24.36,32.23,51.25,50.14,71.56,9.98,11.32,22.2,22.11,36.39,27.84,21.33,8.62,74.63,19.19,97.15,17.75,50.22-3.21,106.31-2.63,154.69-16.04,16.21-4.49,31.71-11.58,47.74-16.49,26.38-8.09,54.58-11.04,78.91-25.89,29.23-17.85,67.02-78,86.03-108.35,5.5-8.78,12.7-18.92,13.84-29.26h-56.63c-24.52,27.61-36.08,68.89-59.3,96.2-18.63,21.9-49.99,20.24-76.47,26.65-29.91,7.23-59.88,19.49-90.76,20.8-26.17,1.11-54.31-3.56-81.19-1.74-12.12.82-25.23,5.69-37.16,5.22-10.79-.42-42.48-6.33-53.24-9.35-20.67-5.79-27.31-21.22-40.5-35.56-5.35-5.82-13.44-9.99-17.68-16.13-12.11-17.54-16.81-45.69-27.67-63.6-10.7-17.64-14.61-25.4-23.71-43.9-15.1-30.72-32.08-33.69-57.63-50.55-22.76-15.02-71.33-48.94-79.12-74.7-8.85-29.29-1.88-64.61-2.1-95.93-.08-10.89-3.33-13.02,1.31-25.6,7.07-19.19,65.61-76.83,83.12-94.36,6.38-6.38,16.33-12.99,22.67-19.59,20.56-21.39,36.46-52.1,57.66-72.49,11.76-11.32,40.88-30.68,55.48-39.17,28.25-16.42,68.96-34.58,101.78-31.88,8.69.71,18.03,3.98,27.01,5.1,7.45.93,15.2-1.13,22.84.82,5.78,1.47,31.44,15.37,38.28,19.2,13.54,7.58,25.79,17.35,39.4,24.83,46.8,25.72,115.93,44.2,141.25,95.39,3.35,6.76,4.52,14.31,7.78,20.95,5.57,11.34,13.63,21.42,18.35,33.2h-119.17c-3.31,0-30.22-29.05-33.66-33.95-16.5-23.53-14.8-51.17-42.89-65.28-32.04-16.1-111.34-18.74-144.92-7.27-46.91,16.03-55.6,49.89-82.27,85.07-31.31,41.3-84.73,33.92-111.55,87.9-9.37,18.85-21.2,73.87-9.12,90.84,1.86,2.62,15.99,16.03,19.54,19.33,18.53,17.25,47.61,33.78,63.43,51.51,9.73,10.9,14.63,26.97,24.54,38,17.42,19.39,14.95,9.91,25.69,36.85,9.58,24.02,22.62,19.51,38.39,32.6,10.23,8.48,16.21,35.03,24.79,44.51,6.13,6.78,29.48,17.85,38.63,20.53,11.32,3.32,87.42,6.95,96.57,3.44,3.17-1.22,4.88-4.51,8.34-5.18,18.89-3.63,38.74-3.25,57.93-9.69,35.03-11.75,57.95-42.97,89.96-59.66.46-.67-2.24-3.35-2.54-3.35h-57.47c-1.38,0-17.87,15.2-21.28,17.6-21.75,15.26-60.28,27.87-86.84,29.79-17.51,1.27-65.48,2.1-80.74-2.22-30.33-8.59-25.92-26.34-40.2-46-8.58-11.82-27.82-20.46-34.58-31.35-3.77-6.08-3.28-16.01-5.48-23.26-5.59-18.41-18.87-23.28-29.25-36.68-5.78-7.47-9-16.99-15.81-23.91-8.6-8.73-22.17-14.03-32.05-21.19-12.43-9.02-53.76-39.82-56.55-53.31-2.31-11.17,2.05-22.47,3-33.42.25-2.89-2.03-5.81-1.42-9.72,6.52-41.94,80.37-53.37,107.94-76.46,37.4-31.33,48.15-97.12,103.97-102.25,20.08-1.84,78.1,1.59,94.99,11.45,14.3,8.35,12.77,20.76,18.27,34.12,6.07,14.74,15.17,27.8,24.48,40.58l-82.04-.02c-8.69,8.31-23.13,4.59-36.34,7.59-40.79,9.26-42.95,41.4-68.35,56.73-21.33,12.88-45.45,8.36-64.84,34.89-5.56,7.61-10.81,27.66-10.51,36.84.81,24.38,36.63,39.76,49.84,55.08,2,2.32,18.33,24.75,19.16,26.48,2.96,6.15,1.58,12.65,5.4,19.95,3.78,7.23,9.48,8.8,14.28,14.45,13.7,16.13,6.46,27.94,33.85,37.14,2.8.94,16.15,4.91,16.15.76v-50.7c0-1.26-15.6-14.24-17.61-17.88-2.97-5.36-1.84-10.12-3.49-15.11-3.04-9.2-24.41-35.17-32.2-42.17-9-8.09-35.92-23.98-36.41-36.42-.26-6.83,2.13-20.26,6.9-25.3,10.31-10.89,40.79-14.26,57.31-27.21,9.23-7.23,31.74-38.72,35.67-40.38,6.35-2.68,14.98-.25,22.26,1.48,7.03-6.1,15.72-9.85,26-11.23,21.13-2.83,245.67-7.14,336.22-7.51,15.73-.06,30.94.6,46.58,2.01,8.81.79,30.16,5.22,37.68-1.31,4.34-3.77,2.18-12.58,3.69-18.03.4-1.43.95-2.82,1.61-4.16-2.52-8.57-8.23-16.43-11.71-24.71-6.23-14.79-10.16-30.63-17.48-45.06-12.68-24.99-32.99-45.74-46.23-70.4-17.86-33.26-19.98-46.37-49.53-73.86-49.38-45.91-74.1-47.22-133.19-69.65-23.23-8.82-49.79-27.9-74.71-30.09-11.9-1.04-25.2,1.03-37.22.03-15.67-1.31-31.34-6.03-47.38-6.72-25.59-1.1-79.6,8.01-105.34,14.65-22.47,5.79-47.18,15.01-69.25,20.33-29.27,7.06-47.81,1.76-77.55,17.11-30.11,15.55-65.21,35.27-94.67,52.39-20.87,12.12-22.56,17.56-38.54,32.45-9.89,9.22-20.91,14.19-30.49,25.29-9.6,11.12-15.58,27.77-23.77,37.08-3.02,3.43-9.12,6.03-12.57,9.4-40.22,39.35-78.28,111.16-95.43,164.87-5.5,17.24-5.6,34.11-10.17,50.68-9.93,35.96-22.77,39.04-15.56,83.09,5.98,36.55,19.53,38.57,35.67,65.74,6.73,11.32,9.5,23.69,17.93,34.47,10.15,12.98,26.65,25.35,38.02,38.05,10.92,12.19,19.86,27.3,30.38,38.92,6.96,7.67,17.99,13.64,23.59,20.36,10.03,12.02,21.96,48.04,31.7,64.65,37.47,63.86,96.44,125.05,164.19,156.97,30.33,14.29,54.97,7.18,84.06,13.98,8.85,2.07,14.65,6.59,22.7,9.42,19.66,6.91,48.29,6.17,69.32,5.02,17.15-.94,36.13-6.49,52.34-6.83,18.47-.38,37.81,3.65,57.54,3.45,15.36-.16,15.81,1.6,28.94,3.21,38.05,4.65,59.82-21.33,90.22-37.87,18.5-10.07,39.39-15.75,58.02-26.5,27.45-15.84,66.79-54.22,89.97-77.37,12.6-12.59,19.01-27.73,30.56-40.43,6.71-7.38,16.85-13.76,23.34-22.3,18.92-24.89,29.47-68.84,31.42-99.57h-43.11c-9.5,24.87-19.79,49.1-32.08,72.71Z"/>
</svg>