<?xml version="1.0" encoding="UTF-8"?>
<svg id="Capa_1" data-name="Capa 1" xmlns="http://www.w3.org/2000/svg" viewBox="0 0 609.42 208.08">
  <defs>
    <style>
      .cls-1 {
        fill: #fff;
      }
    </style>
  </defs>
  <path class="cls-1" d="M323.02,82.21h49.16c0,7.48-1.16,14.62-3.48,21.42-2.32,6.8-5.75,12.83-10.27,18.1-4.53,5.27-10.01,9.43-16.44,12.49-6.43,3.06-13.7,4.58-21.81,4.58s-15.2-1.4-21.89-4.19c-6.69-2.79-12.54-6.72-17.54-11.78-5.01-5.06-8.88-11.06-11.62-18.02-2.74-6.96-4.11-14.54-4.11-22.76s1.37-15.81,4.11-22.76c2.74-6.95,6.61-12.96,11.62-18.02,5-5.06,10.85-8.98,17.54-11.77,6.69-2.79,13.99-4.19,21.89-4.19,6.85,0,13.09.95,18.73,2.84,5.64,1.9,10.67,4.61,15.09,8.14,4.43,3.53,8.22,7.77,11.38,12.72l-6.32,5.53c-3.69-6.11-8.85-11.06-15.49-14.86-6.64-3.79-14.44-5.69-23.39-5.69s-16.44,2.06-23.39,6.17c-6.96,4.11-12.46,9.75-16.52,16.91-4.06,7.17-6.09,15.49-6.09,24.97s2.03,17.68,6.09,24.89c4.05,7.22,9.53,12.88,16.44,16.99,6.9,4.11,14.72,6.16,23.47,6.16,6.22,0,11.8-1.05,16.75-3.16,4.95-2.11,9.25-5,12.88-8.69,3.63-3.69,6.56-7.9,8.77-12.64,2.21-4.74,3.58-9.8,4.11-15.17h-39.67v-8.22Z"/>
  <path class="cls-1" d="M403.94,94.86l-.95,1.9-16.6,40.62h-9.8l48.84-114.91,48.84,114.91h-9.8l-16.44-39.99-.79-2.06-21.81-52.79-21.5,52.32ZM400.15,92.01h51.05l2.84,8.22h-56.74l2.84-8.22Z"/>
  <rect class="cls-1" x="488.66" y="26.73" width="8.69" height="110.64"/>
  <path class="cls-1" d="M539.08,94.86l-.95,1.9-16.6,40.62h-9.8l48.84-114.91,48.84,114.91h-9.8l-16.44-39.99-.79-2.06-21.81-52.79-21.5,52.32ZM535.29,92.01h51.05l2.84,8.22h-56.74l2.84-8.22Z"/>
  <g>
    <path class="cls-1" d="M265.42,175.78h3.03c.62,0,1.19-.11,1.69-.32.5-.21.89-.53,1.18-.94.29-.41.43-.91.43-1.5,0-.89-.31-1.58-.94-2.08-.63-.49-1.41-.74-2.36-.74h-2.54v14.73h2.81c.8,0,1.51-.14,2.13-.43.62-.29,1.1-.7,1.45-1.23.35-.54.52-1.19.52-1.95,0-.57-.1-1.08-.29-1.53-.2-.45-.48-.82-.84-1.13s-.8-.53-1.3-.68c-.5-.15-1.05-.23-1.66-.23h-3.29v-1.26h3.29c.91,0,1.75.1,2.52.29s1.44.5,2.02.9,1.03.92,1.35,1.54c.32.63.48,1.37.48,2.22,0,1.23-.28,2.25-.84,3.07-.56.81-1.32,1.42-2.28,1.82-.96.4-2.04.6-3.25.6h-5.09v-18.75h4.82c1.12,0,2.1.17,2.93.51s1.48.85,1.94,1.54c.46.69.7,1.57.7,2.64,0,.88-.23,1.62-.7,2.25s-1.11,1.1-1.94,1.42-1.81.48-2.93.48h-3.03v-1.26Z"/>
    <path class="cls-1" d="M287.06,179.88l-.21.48-2.79,6.59h-2.54l8.71-19.69,8.7,19.69h-2.54l-2.73-6.43-.21-.54-3.21-7.55-3.16,7.45ZM286.12,179.18h8.3l.8,2.14h-9.91l.8-2.14Z"/>
    <path class="cls-1" d="M308.83,168.2v18.75h-2.28v-18.75h2.28ZM307.82,168.2h3.83c1.21,0,2.3.23,3.25.68.95.46,1.71,1.1,2.28,1.94.56.84.84,1.84.84,3s-.28,2.14-.84,2.99c-.56.85-1.32,1.5-2.28,1.96-.96.46-2.04.68-3.25.68h-3.83v-2.01h3.83c.8,0,1.51-.14,2.13-.43.62-.29,1.1-.7,1.45-1.23.35-.54.52-1.19.52-1.96s-.17-1.42-.52-1.96-.83-.95-1.45-1.23c-.62-.29-1.33-.43-2.13-.43h-3.83v-2.01ZM312.45,177.71l6.7,9.24h-2.81l-6.43-9.24h2.54Z"/>
    <path class="cls-1" d="M329.16,168.2v18.75h-2.28v-18.75h2.28ZM328.15,168.2h3.83c1.21,0,2.3.23,3.25.68.95.46,1.71,1.1,2.28,1.94.56.84.84,1.84.84,3s-.28,2.14-.84,2.99c-.56.85-1.32,1.5-2.28,1.96-.96.46-2.04.68-3.25.68h-3.83v-2.01h3.83c.8,0,1.51-.14,2.13-.43.62-.29,1.1-.7,1.45-1.23.35-.54.52-1.19.52-1.96s-.17-1.42-.52-1.96-.83-.95-1.45-1.23c-.62-.29-1.33-.43-2.13-.43h-3.83v-2.01ZM332.78,177.71l6.7,9.24h-2.81l-6.43-9.24h2.54Z"/>
    <path class="cls-1" d="M349.52,168.2v18.75h-2.28v-18.75h2.28Z"/>
    <path class="cls-1" d="M358.8,173.76c.47-1.17,1.14-2.19,2-3.05.86-.87,1.87-1.54,3.03-2.04s2.42-.74,3.78-.74,2.64.25,3.79.74c1.15.49,2.16,1.17,3.01,2.04.86.87,1.52,1.88,2,3.05.47,1.17.71,2.44.71,3.82s-.24,2.62-.71,3.8c-.47,1.18-1.14,2.2-2,3.07-.86.87-1.86,1.55-3.01,2.04-1.15.49-2.42.74-3.79.74s-2.62-.25-3.78-.74c-1.16-.49-2.17-1.17-3.03-2.04-.86-.87-1.52-1.89-2-3.07-.47-1.18-.71-2.45-.71-3.8s.24-2.65.71-3.82ZM361.42,181.35c.62,1.11,1.46,1.98,2.53,2.62,1.07.64,2.29.96,3.64.96s2.59-.32,3.66-.96c1.06-.64,1.9-1.52,2.52-2.62.62-1.11.92-2.37.92-3.78s-.31-2.67-.92-3.78c-.62-1.11-1.46-1.98-2.52-2.62-1.06-.64-2.28-.96-3.66-.96s-2.57.32-3.64.96c-1.07.64-1.91,1.52-2.53,2.62-.62,1.11-.92,2.37-.92,3.78s.31,2.67.92,3.78Z"/>
    <path class="cls-1" d="M401.12,183.25c.47.57,1,1.02,1.59,1.34.59.32,1.26.48,2.01.48,1,0,1.8-.28,2.41-.83.61-.55.91-1.26.91-2.12s-.2-1.51-.59-2.01c-.39-.5-.91-.91-1.54-1.22-.63-.31-1.31-.59-2.02-.84-.46-.16-.98-.37-1.55-.63-.57-.26-1.12-.59-1.63-.99-.52-.4-.94-.9-1.27-1.49-.33-.59-.5-1.31-.5-2.17,0-.93.23-1.76.7-2.49s1.11-1.31,1.93-1.73c.82-.42,1.76-.63,2.81-.63s1.91.19,2.66.58,1.41.87,1.94,1.47c.54.6.95,1.23,1.26,1.89l-1.96,1.13c-.23-.46-.53-.92-.88-1.37-.36-.45-.79-.81-1.3-1.1-.51-.28-1.13-.43-1.86-.43-1.02,0-1.76.25-2.22.74-.46.49-.7,1.04-.7,1.65,0,.52.13,1,.4,1.43s.72.85,1.35,1.23c.63.38,1.5.76,2.58,1.14.5.18,1.03.41,1.58.7s1.07.65,1.54,1.08c.47.44.86.96,1.16,1.58.3.62.46,1.35.46,2.21s-.16,1.56-.47,2.22-.74,1.22-1.29,1.69c-.54.47-1.16.82-1.85,1.07-.69.25-1.41.37-2.16.37-1.02,0-1.96-.22-2.83-.66-.87-.44-1.63-1.02-2.28-1.74-.65-.72-1.18-1.49-1.59-2.32l1.82-1.23c.43.75.88,1.41,1.35,1.98Z"/>
    <path class="cls-1" d="M418.71,173.76c.47-1.17,1.14-2.19,2-3.05.86-.87,1.87-1.54,3.03-2.04s2.42-.74,3.78-.74,2.64.25,3.79.74c1.15.49,2.16,1.17,3.01,2.04.86.87,1.52,1.88,2,3.05.47,1.17.71,2.44.71,3.82s-.24,2.62-.71,3.8c-.47,1.18-1.14,2.2-2,3.07-.86.87-1.86,1.55-3.01,2.04-1.15.49-2.42.74-3.79.74s-2.62-.25-3.78-.74c-1.16-.49-2.17-1.17-3.03-2.04-.86-.87-1.52-1.89-2-3.07-.47-1.18-.71-2.45-.71-3.8s.24-2.65.71-3.82ZM421.34,181.35c.62,1.11,1.46,1.98,2.53,2.62,1.07.64,2.29.96,3.64.96s2.59-.32,3.66-.96c1.06-.64,1.9-1.52,2.52-2.62.62-1.11.92-2.37.92-3.78s-.31-2.67-.92-3.78c-.62-1.11-1.46-1.98-2.52-2.62-1.06-.64-2.28-.96-3.66-.96s-2.57.32-3.64.96c-1.07.64-1.91,1.52-2.53,2.62-.62,1.11-.92,2.37-.92,3.78s.31,2.67.92,3.78Z"/>
    <path class="cls-1" d="M447.64,183.25c.47.57,1,1.02,1.59,1.34.59.32,1.26.48,2.01.48,1,0,1.8-.28,2.41-.83.61-.55.91-1.26.91-2.12s-.2-1.51-.59-2.01c-.39-.5-.91-.91-1.54-1.22-.63-.31-1.31-.59-2.02-.84-.46-.16-.98-.37-1.55-.63-.57-.26-1.12-.59-1.63-.99-.52-.4-.94-.9-1.27-1.49-.33-.59-.5-1.31-.5-2.17,0-.93.23-1.76.7-2.49s1.11-1.31,1.93-1.73c.82-.42,1.76-.63,2.81-.63s1.91.19,2.66.58,1.41.87,1.94,1.47c.54.6.95,1.23,1.26,1.89l-1.96,1.13c-.23-.46-.53-.92-.88-1.37-.36-.45-.79-.81-1.3-1.1-.51-.28-1.13-.43-1.86-.43-1.02,0-1.76.25-2.22.74-.46.49-.7,1.04-.7,1.65,0,.52.13,1,.4,1.43s.72.85,1.35,1.23c.63.38,1.5.76,2.58,1.14.5.18,1.03.41,1.58.7s1.07.65,1.54,1.08c.47.44.86.96,1.16,1.58.3.62.46,1.35.46,2.21s-.16,1.56-.47,2.22-.74,1.22-1.29,1.69c-.54.47-1.16.82-1.85,1.07-.69.25-1.41.37-2.16.37-1.02,0-1.96-.22-2.83-.66-.87-.44-1.63-1.02-2.28-1.74-.65-.72-1.18-1.49-1.59-2.32l1.82-1.23c.43.75.88,1.41,1.35,1.98Z"/>
    <path class="cls-1" d="M463.75,168.2h11.92v2.14h-4.82v16.61h-2.28v-16.61h-4.82v-2.14Z"/>
    <path class="cls-1" d="M485.71,168.2v18.75h-2.28v-18.75h2.28ZM484.7,168.2h9.45v2.14h-9.45v-2.14ZM484.7,175.7h8.92v2.14h-8.92v-2.14ZM484.7,184.8h9.45v2.14h-9.45v-2.14Z"/>
    <path class="cls-1" d="M519.97,168.2v19.69l-14.2-14.89v13.95h-2.28v-19.69l14.2,14.89v-13.96h2.28Z"/>
    <path class="cls-1" d="M531.89,168.2v18.75h-2.28v-18.75h2.28Z"/>
    <path class="cls-1" d="M543.32,175.78h3.03c.62,0,1.19-.11,1.69-.32.5-.21.89-.53,1.18-.94.29-.41.43-.91.43-1.5,0-.89-.31-1.58-.94-2.08-.63-.49-1.41-.74-2.36-.74h-2.54v14.73h2.81c.8,0,1.51-.14,2.13-.43.62-.29,1.1-.7,1.45-1.23.35-.54.52-1.19.52-1.95,0-.57-.1-1.08-.29-1.53-.2-.45-.48-.82-.84-1.13s-.8-.53-1.3-.68c-.5-.15-1.05-.23-1.66-.23h-3.29v-1.26h3.29c.91,0,1.75.1,2.52.29s1.44.5,2.02.9,1.03.92,1.35,1.54c.32.63.48,1.37.48,2.22,0,1.23-.28,2.25-.84,3.07-.56.81-1.32,1.42-2.28,1.82-.96.4-2.04.6-3.25.6h-5.09v-18.75h4.82c1.12,0,2.1.17,2.93.51s1.48.85,1.94,1.54c.46.69.7,1.57.7,2.64,0,.88-.23,1.62-.7,2.25s-1.11,1.1-1.94,1.42-1.81.48-2.93.48h-3.03v-1.26Z"/>
    <path class="cls-1" d="M564.08,168.2v16.61h7.37v2.14h-9.64v-18.75h2.28Z"/>
    <path class="cls-1" d="M581.46,168.2v18.75h-2.28v-18.75h2.28ZM580.45,168.2h9.45v2.14h-9.45v-2.14ZM580.45,175.7h8.92v2.14h-8.92v-2.14ZM580.45,184.8h9.45v2.14h-9.45v-2.14Z"/>
  </g>
  <path class="cls-1" d="M195.59,165.16c5.38-8.6,9.55-18.02,12.4-28.02,8.02-28.13,4.29-58.41-10.22-83.08h-.01C176.88,16.57,132.64-4.51,90.19,2.79,60.36,7.72,34.94,24.54,18.6,50.15,2.19,75.9-2.51,107.52,5.7,136.93c7.13,25.62,24.11,48.03,46.55,61.47,9.36,5.61,19.31,10.3,28.69,6.69,7.12-2.42,14.1-11.47,14.94-19.34.37-3.39-.25-8.04-5.29-11.09-2.95-2-7.11-2.39-11.15-2.77-4.8-.47-9.66-.93-12.87-3.91-2.57-2.84-3.16-6.28-3.73-9.61-.18-1.12-.36-2.07-.55-2.92l-.02-.14c-.29-2.59-1.06-5.05-1.79-7.43-.7-2.24-1.5-4.78-1.85-7.48-.09-.8-.15-1.59-.22-2.37l-.08-.84c-.28-3.35-.53-6.46-1.5-9.38-.16-.52-.32-1.01-.48-1.5-.44-1.37-.9-2.77-1.13-4.25-.83-4.21,1.06-8.04,3.07-11.61,5.21-9.13,8.47-19.61,9.4-30.28l.04-.43c.43-4.11.92-8.76,2.48-12.58.72-1.6,1.57-3.08,3-3.08.13,0,.26.01.41.04,1.92.37,2.22,2.71,2.39,7.61l.03.96c.25,8.81,3.76,17.8,10.76,27.47,4.8,6.65,10.17,13.22,15.35,19.57l.19.23c13.59,16.6,27.64,33.76,34,55.03,2.31,7.74,3.14,15.26,2.57,22.99-.56,4.59-.11,7.54,1.29,8.54,2.33,1.69,8.32-1.14,13.14-3.42l.49-.24c.51-.25,1.03-.48,1.54-.72l4.58-2.49c14.1-8.2,25.76-19.3,34.65-32.96M115.66,32.36c-5.81.54-10.98,1.63-15.8,3.3-13.26,4.57-24.19,13.74-30.01,25.14-2.82,5.78-3.58,12.11-4.37,18.81-.7,5.9-1.42,11.97-3.69,17.67-1.66,4.69-4.29,9.35-7.84,13.83-.24.32-.5.65-.77.99-1.56,2.02-3.15,4.07-3.89,6.31l-.05.16c-.92,2.95.56,5.69,2.12,8.61,1.25,2.33,2.53,4.69,2.82,7.41.31,1.36.58,2.91.78,4.14.53,3.02,1.06,6.06,2.17,8.74,1.29,3.34,2.08,7.01,2.78,10.25.59,2.77,1.25,5.91,2.25,8.78,2.31,6.2,8.65,6.66,15.36,7.17l.21.02c1.52.11,3.08.23,4.55.42,7.01.78,11.15,4.47,11.35,10.14.28,8.04-7.82,17.74-16.04,19.24-3.4.71-6.96.39-10.81-.82-24.31-9.45-44.44-29.26-55.25-54.34C.69,123.15.12,94.83,9.95,70.63,21.84,40.25,47.41,17.06,78.36,8.61c23.33-6.84,47.34-5.52,69.43,3.81,1.13.53,2.23,1.02,3.33,1.51l.32.14c5.37,2.38,10.83,4.8,14.65,9.38l.14.18c1.29,2.26,1.41,4.23.37,5.87-2.06,3.28-8.31,4.43-19.66,3.63-7.11-.65-15.21-1.31-23.07-1.21M83.04,54.45l.13-.1c6.73-4.24,15.56.48,21.6,6.31,10.8,11.66,13.51,26.65,16.39,42.51,3.52,19.51,7.15,39.59,25.79,55.93l.17.16c8.1,7,17.03,11.93,26.53,14.65,3.5.93,7.19,2.25,7.84,5.11.48,2.15-.87,4.51-4.25,7.4-2.05,1.75-20.3,16.99-29.46,16.99-.53,0-.99-.04-1.4-.13l-.14-.04c-4.14-1.37-4.28-7.22-4.4-12.38-.04-2.2-.11-4.09-.38-5.27-3.88-25.57-20.3-45.75-36.2-65.25-5.77-7.07-11.7-14.34-16.98-21.83-4.3-6.24-7.1-11.6-8.81-16.86-2.29-7.23-4.12-21.1,3.58-27.21"/>
  <path class="cls-1" d="M195.59,165.16c32.3-52.43,14.06-122.93-41.01-150.87C98.77-14.54,30.26,13.32,9.63,72.46c-15.46,41.83-.81,92.15,35.15,118.66,9.38,6.49,22.31,15.9,34.15,12.72,6.17-1.72,10.8-6.89,13.53-12.58,4.97-10.7-.99-17.08-11.92-17.54-10.91-.89-17.66-2.32-19.29-14.69l-.6-3.21-.02-.12c-.35-3.3-1.48-6.32-2.47-9.72-1.06-3.27-1.37-7.01-1.62-10.43-.23-2.51-.49-4.86-1.25-7.22-.77-2.51-1.79-5.22-1.88-7.89-.2-5.66,3.39-10.14,5.67-14.95,4.54-9.13,6.66-18.97,7.52-29.12.46-3.45.99-6.93,2.56-10.39.43-.83.87-1.75,1.89-2.58,1.07-.89,2.83-1.02,4.04-.23,1.96,1.3,2.01,3.82,2.21,5.83-.4,14.29,6.37,25.51,14.98,36.42,16.51,21.61,36.65,41.91,44.63,68.64,2.02,6.61,3.03,13.56,2.83,20.47.25,3.69-2.57,12.81,3.3,11.85,1.6-.22,3.21-.78,4.78-1.39,6.28-2.59,12.39-5.69,18.04-9.51,11.36-7.55,21.19-17.4,28.75-28.8-10.99,17.38-27.37,31.35-46.4,39.28-11.9,5.09-10.16-2.78-9.81-11.45.27-13.62-4.68-26.75-11.23-38.55-9.99-17.88-24.32-32.9-36.85-49.03-6.41-8.16-12.61-16.98-14.82-27.33-1.04-4.14-.64-8.62-1.34-12.71-.27-1.19-.66-1.63-1.34-1.2-2.33,2.88-2.67,7.23-3.24,11.06-.76,10.3-2.96,20.82-7.61,30.16-2.09,4.66-6,9.18-5.19,14.52.21,1.87,1.09,4.1,1.64,5.93,1.92,5.8,1.06,11.92,2.95,17.71.89,2.73,2.39,7.63,2.57,10.02,1.4,7.1,1.37,12.87,9.71,14.32,6.08,1.28,13.31.35,18.7,4.33,9.07,6.12,5.09,18.88-.9,25.73-9.83,12.19-23.92,9.89-36.06,2.86-8.91-4.85-17.15-11-24.3-18.2C2,155.31-7.73,109.6,6.39,71.31,27.87,10.34,98.3-18.04,155.68,12.18c55.47,28.51,73.68,100.61,39.91,152.98"/>
  <path class="cls-1" d="M115.66,32.36c-21.8,1.91-45.21,16.71-48.35,39.64-.89,5.53-1.16,11.2-2.17,16.85-1.01,5.66-2.94,11.2-5.78,16.23-2.43,4.89-7.25,8.99-9.02,13.97-.67,2.21.54,4.69,1.87,7.12,1.32,2.44,2.89,5.11,3.25,8.3-.14-.73,1.37,7.08,1.34,6.92.46,2.39,1.07,4.35,2,6.66,1.67,4.65,2.43,9.47,3.58,13.99,1.63,8.7,6.33,9.43,14.36,10,7.75.33,17.16,1.63,18.45,11.04.67,7.99-4.47,15.2-10.84,19.45-6.68,4.46-15.18,3.56-22.08.14-17.85-7.84-33.04-21.16-43.69-37.38C-14.07,115.84.83,49.94,51.12,18.89,69.69,7.65,91.79,2.16,113.46,3.35c14.43.8,28.57,5.01,41.46,11.47,4.33,2.07,8.75,4.55,11.83,8.52,2.91,4.9-.29,8.82-5.34,9.75-8.36,1.64-16.72-.08-25.05-.62-4.16-.32-8.32-.53-12.49-.54,4.17-.11,8.35-.02,12.52.19,7.52,0,24.89,3.41,29.74-2.86,3.92-7.55-13.15-13.5-18.38-15.94-27.34-11.63-59.23-9.93-85.79,2.99C6.72,44.07-12.13,111.21,21.68,163.24c10.21,15.7,24.85,28.63,41.97,36.23,3.93,1.87,8.54,3.25,12.89,2.48,9.1-.94,20.97-15.85,12.65-23.58-5.66-4.28-13.46-2.26-20.06-4.24-6-1.4-8.5-5.69-9.61-11.41-1.13-4.74-1.81-9.42-3.32-13.78-1.71-3.81-2.5-10.04-3.3-14.19-.34-3.97-3.41-7.54-4.68-11.51-1.77-4.57,1.94-9.24,4.52-12.4,3.53-4.36,6.39-9.06,8.27-14.36,4.15-10.56,2.95-22.4,6.97-33.08,7.84-18.74,27.98-29.85,47.68-31.06"/>
  <path class="cls-1" d="M83.04,54.45c8.36-5.08,18.47,2.12,23.85,8.56,5.84,7.1,9.22,15.84,11.46,24.67,4.46,17.49,5.78,36.24,14.71,52.19,8.59,15.62,23.95,27.41,40.96,32.3,3.39.89,8.67,2.41,9.33,6.95.46,4.4-3.51,7.47-6.21,9.79-5.38,4.42-10.91,8.53-17.02,11.98-5.31,2.94-15.42,8.11-18.75-.2-1.84-4.74-.82-9.99-1.54-14.72-.9-6.15-2.51-12.2-4.76-18.03-6.82-17.61-18.71-32.51-30.35-47.26-5.88-7.42-11.74-14.86-17.09-22.68-5.3-7.81-9.52-16.66-10.1-26.22-.43-6.14.45-13.23,5.51-17.35M83.04,54.45c-9.34,8.2-5.26,25.72.04,35.26,2.97,5.56,6.72,10.63,10.62,15.58,11.72,14.91,24.82,28.61,35.1,44.69,6.77,10.47,12.48,23.16,14.28,35.24,1.21,4.47-.89,14.45,3.83,16.34,2.87.31,8.23-1.92,11.38-3.89,5.78-3.33,11.27-7.4,16.49-11.61,2.12-1.83,7.11-5.44,3.88-8.11-1.36-1.07-3.45-1.75-5.59-2.35-17.87-5.4-33.45-18.09-41.97-34.67-4.25-8.25-6.74-17.22-8.47-26.19-3.73-18.64-4.45-39.58-18.1-54.2-5.46-5.17-14.14-10.63-21.49-6.09"/>
</svg>