<?xml version="1.0" encoding="UTF-8"?>
<svg id="Capa_1" data-name="Capa 1" xmlns="http://www.w3.org/2000/svg" viewBox="0 0 608.67 276.49">
  <defs>
    <style>
      .cls-1, .cls-2 {
        fill: #fff;
      }

      .cls-2 {
        stroke: #fff;
        stroke-miterlimit: 10;
        stroke-width: 1.92px;
      }
    </style>
  </defs>
  <path class="cls-1" d="M3.36,251.5h9.5c3.68,0,7.47,1.68,7.47,6.12,0,2.75-1.72,4.58-4.23,5.33v.07c3.06.41,5.27,2.48,5.27,5.75,0,5.3-4.61,7.09-9.22,7.09H3.36v-24.36ZM7.7,261.41h3.85c2.89,0,4.44-1.21,4.44-3.3s-1.55-3.03-4.82-3.03h-3.48v6.33ZM7.7,272.22h3.89c2.23,0,5.44-.45,5.44-3.65,0-2.55-1.76-3.44-5.27-3.44h-4.06v7.09Z"/>
  <path class="cls-1" d="M36.71,251.5h3.75l10.5,24.37h-4.96l-2.27-5.57h-10.56l-2.2,5.57h-4.86l10.6-24.37ZM42.22,266.57l-3.75-9.91-3.82,9.91h7.57Z"/>
  <path class="cls-1" d="M56.82,251.5h8.47c4.58,0,8.98,1.82,8.98,6.99,0,3.51-2.17,5.82-5.58,6.58l6.51,10.81h-5.23l-5.64-10.33h-3.17v10.33h-4.34v-24.37ZM64.7,262c2.44,0,5.23-.58,5.23-3.55,0-2.65-2.62-3.3-4.85-3.3h-3.92v6.85h3.54Z"/>
  <path class="cls-1" d="M81.91,251.5h8.47c4.58,0,8.98,1.82,8.98,6.99,0,3.51-2.17,5.82-5.58,6.58l6.51,10.81h-5.23l-5.64-10.33h-3.17v10.33h-4.34v-24.37ZM89.79,262c2.44,0,5.23-.58,5.23-3.55,0-2.65-2.62-3.3-4.85-3.3h-3.92v6.85h3.54Z"/>
  <rect class="cls-1" x="107" y="251.5" width="4.34" height="24.37"/>
  <path class="cls-1" d="M132.03,250.88c7.61,0,13.15,4.92,13.15,12.73s-5.54,12.87-13.15,12.87-13.04-5.27-13.04-12.87,5.54-12.73,13.04-12.73M132.06,272.6c4.99,0,8.4-3.79,8.4-8.98s-3.34-8.91-8.4-8.91-8.36,3.89-8.36,8.91,3.41,8.98,8.36,8.98"/>
  <path class="cls-1" d="M171.89,251.5h3.75l10.5,24.37h-4.96l-2.27-5.57h-10.56l-2.2,5.57h-4.86l10.6-24.37ZM177.4,266.57l-3.75-9.91-3.82,9.91h7.57Z"/>
  <path class="cls-1" d="M191.99,251.5h9.5c3.68,0,7.47,1.68,7.47,6.12,0,2.75-1.72,4.58-4.23,5.33v.07c3.06.41,5.27,2.48,5.27,5.75,0,5.3-4.61,7.09-9.22,7.09h-8.78v-24.36ZM196.33,261.41h3.85c2.89,0,4.44-1.21,4.44-3.3s-1.55-3.03-4.82-3.03h-3.48v6.33ZM196.33,272.22h3.89c2.23,0,5.44-.45,5.44-3.65,0-2.55-1.76-3.44-5.27-3.44h-4.06v7.09Z"/>
  <rect class="cls-1" x="217.71" y="251.5" width="4.34" height="24.37"/>
  <polygon class="cls-1" points="230.86 251.5 247 251.5 247 255.28 235.19 255.28 235.19 261.48 246.38 261.48 246.38 265.13 235.19 265.13 235.19 272.01 247.62 272.01 247.62 275.87 230.86 275.87 230.86 251.5"/>
  <path class="cls-1" d="M255.29,251.5h8.47c4.58,0,8.98,1.82,8.98,6.99,0,3.51-2.17,5.82-5.58,6.58l6.51,10.81h-5.23l-5.64-10.33h-3.17v10.33h-4.34v-24.37ZM263.18,262c2.44,0,5.23-.58,5.23-3.55,0-2.65-2.62-3.3-4.85-3.3h-3.92v6.85h3.54Z"/>
  <polygon class="cls-1" points="284.9 255.28 277.43 255.28 277.43 251.5 296.7 251.5 296.7 255.28 289.23 255.28 289.23 275.87 284.9 275.87 284.9 255.28"/>
  <path class="cls-1" d="M313.81,250.88c7.61,0,13.15,4.92,13.15,12.73s-5.54,12.87-13.15,12.87-13.04-5.27-13.04-12.87,5.54-12.73,13.04-12.73M313.85,272.6c4.99,0,8.4-3.79,8.4-8.98s-3.34-8.91-8.4-8.91-8.36,3.89-8.36,8.91,3.41,8.98,8.36,8.98"/>
  <path class="cls-1" d="M346.65,251.5h8.47c4.58,0,8.98,1.82,8.98,6.99,0,3.51-2.17,5.82-5.58,6.58l6.51,10.81h-5.23l-5.64-10.33h-3.17v10.33h-4.34v-24.37ZM354.53,262c2.44,0,5.23-.58,5.23-3.55,0-2.65-2.62-3.3-4.85-3.3h-3.92v6.85h3.54Z"/>
  <polygon class="cls-1" points="371.74 251.5 387.89 251.5 387.89 255.28 376.08 255.28 376.08 261.48 387.27 261.48 387.27 265.13 376.08 265.13 376.08 272.01 388.51 272.01 388.51 275.87 371.74 275.87 371.74 251.5"/>
  <path class="cls-1" d="M408.61,256.59c-.93-1.2-2.75-2.1-4.47-2.1-2,0-4.3.96-4.3,3.34,0,2.24,1.89,2.89,4.65,3.75,3.13.96,7.12,2.34,7.12,7.13,0,5.23-4.1,7.78-8.88,7.78-3.17,0-6.44-1.2-8.36-3.47l3.1-2.89c1.2,1.65,3.41,2.69,5.34,2.69,2.03,0,4.4-1,4.4-3.62s-2.55-3.27-5.61-4.23c-2.96-.93-6.16-2.37-6.16-6.92,0-4.95,4.51-7.16,8.91-7.16,2.44,0,5.23.86,7.09,2.62l-2.82,3.1Z"/>
  <rect class="cls-1" x="419.38" y="251.5" width="4.34" height="24.37"/>
  <path class="cls-1" d="M432.53,251.5h8.64c6.37,0,13.46,3.03,13.46,12.18,0,8.54-7.09,12.18-13.46,12.18h-8.64v-24.37ZM440.48,272.08c4.47,0,9.5-1.82,9.5-8.4,0-6.99-5.02-8.47-9.5-8.47h-3.61v16.86h3.61Z"/>
  <polygon class="cls-1" points="462.27 251.5 478.41 251.5 478.41 255.28 466.61 255.28 466.61 261.48 477.8 261.48 477.8 265.13 466.61 265.13 466.61 272.01 479.03 272.01 479.03 275.87 462.27 275.87 462.27 251.5"/>
  <polygon class="cls-1" points="486.71 251.5 492.46 251.5 503.78 269.74 503.85 269.74 503.85 251.5 508.19 251.5 508.19 275.87 502.68 275.87 491.12 257.04 491.05 257.04 491.05 275.87 486.71 275.87 486.71 251.5"/>
  <path class="cls-1" d="M534.59,257.21c-1.27-1.76-3.58-2.51-5.54-2.51-5.03,0-8.43,3.89-8.43,8.91,0,5.3,3.24,8.98,8.26,8.98,2.62,0,4.68-1.14,5.92-2.82l3.48,2.45c-2.14,2.68-5.3,4.27-9.43,4.27-7.61,0-13.01-5.26-13.01-12.87s5.71-12.73,13.22-12.73c3.17,0,6.92,1.17,8.84,3.72l-3.3,2.62Z"/>
  <rect class="cls-1" x="544.41" y="251.5" width="4.34" height="24.37"/>
  <path class="cls-1" d="M565.19,251.5h3.75l10.5,24.37h-4.96l-2.27-5.57h-10.57l-2.2,5.57h-4.85l10.6-24.37ZM570.7,266.57l-3.75-9.91-3.82,9.91h7.57Z"/>
  <polygon class="cls-1" points="585.3 251.5 589.63 251.5 589.63 272.01 599.99 272.01 599.99 275.87 585.3 275.87 585.3 251.5"/>
  <path class="cls-1" d="M7.5,165.3c0-6.98-3.13-9.69-7.5-9.69v-1.87h31.36v1.87c-4.38,0-7.5,2.71-7.5,9.69v45.63c0,9.58,3.44,11.67,10.42,11.67h3.75c11.98,0,17.29-5.1,20-19.8h1.77l-1.77,21.56c-.1,1.36-.83,2.29-2.19,2.29H0v-1.88c4.38,0,7.5-2.71,7.5-9.69v-49.8Z"/>
  <path class="cls-1" d="M139.6,190c0,21.46-15.63,37.61-37.82,37.61s-37.93-16.15-37.93-37.61,15.63-37.51,37.93-37.51,37.82,15.94,37.82,37.51M81.88,190c1.14,17.81,10,33.86,22.71,33.86s18.54-16.04,17.08-33.86c-1.35-17.82-9.79-33.86-22.61-33.86s-18.34,15.1-17.19,33.86"/>
  <path class="cls-1" d="M170.75,152.7c16.25,0,24.59,7.92,24.59,15.52,0,4.9-4.58,7.61-8.96,7.61-1.46,0-2.92-.31-4.06-.94.21-.63.31-1.77.31-3.13,0-5.83-2.29-15.11-11.15-15.11-4.9,0-8.65,2.92-8.65,7.92,0,7.4,6.98,12.09,14.8,16.98,9.79,6.04,20.84,12.29,20.84,24.17,0,15.84-14.38,21.98-29.38,21.98s-25.11-8.23-25.11-18.96c0-5.21,3.44-9.69,8.33-9.69,1.25,0,2.71.31,4.17,1.04-1.04,2.08-1.35,4.27-1.35,6.56,0,8.33,3.44,16.88,14.06,16.88,7.29,0,12.19-4.9,12.19-12.09,0-8.44-8.13-12.81-16.36-17.81-8.33-5.31-16.88-11.25-16.88-23.34,0-10.73,10.21-17.61,22.61-17.61"/>
  <path class="cls-1" d="M234.5,165.3c0-6.98-3.13-9.69-7.5-9.69v-1.87h39.9c11.77,0,19.48,4.38,19.48,15.1,0,17.3-22.61,28.13-35.53,33.13v13.13c0,6.98,3.13,9.69,7.5,9.69v1.88h-31.36v-1.88c4.38,0,7.5-2.71,7.5-9.69v-49.8ZM250.86,197.7c6.67-4.06,17.92-12.5,17.92-26.36,0-8.23-4.48-13.65-10.42-13.65h-3.75c-2.5,0-3.75,1.67-3.75,5.31v34.69Z"/>
  <path class="cls-1" d="M288.99,153.74h31.36v1.87c-4.38,0-7.5,2.71-7.5,9.69v49.8c0,6.98,3.13,9.69,7.5,9.69v1.88h-31.36v-1.88c4.38,0,7.5-2.71,7.5-9.69v-49.8c0-6.98-3.13-9.69-7.5-9.69v-1.87Z"/>
  <path class="cls-1" d="M331.18,161.45c-1.04-3.02-3.75-5.83-7.92-5.83v-1.87h21.98c2.09,0,2.92.94,3.44,1.67l31.15,48.34h.21l-.31-40.01c-.1-6.15-2.09-8.13-7.4-8.13v-1.87h19.59v1.87c-5.42,0-7.4,1.98-7.5,8.13l-.42,63.34h-5.73s-6.04-3.33-11.98-13.03l-30.52-48.24h-.21l.1,49.28c0,6.98,1.98,9.9,7.4,9.9v1.67h-19.69v-1.67c5.52,0,7.4-2.92,7.5-9.9l.31-53.66Z"/>
  <path class="cls-1" d="M470.67,190c0,21.46-15.63,37.61-37.82,37.61s-37.93-16.15-37.93-37.61,15.63-37.51,37.93-37.51,37.82,15.94,37.82,37.51M412.96,190c1.14,17.81,10,33.86,22.71,33.86s18.54-16.04,17.08-33.86c-1.35-17.82-9.79-33.86-22.61-33.86s-18.34,15.1-17.19,33.86"/>
  <path class="cls-1" d="M501.82,152.7c16.25,0,24.59,7.92,24.59,15.52,0,4.9-4.58,7.61-8.96,7.61-1.46,0-2.92-.31-4.06-.94.21-.63.31-1.77.31-3.13,0-5.83-2.29-15.11-11.15-15.11-4.9,0-8.65,2.92-8.65,7.92,0,7.4,6.98,12.09,14.8,16.98,9.79,6.04,20.84,12.29,20.84,24.17,0,15.84-14.38,21.98-29.38,21.98s-25.11-8.23-25.11-18.96c0-5.21,3.44-9.69,8.33-9.69,1.25,0,2.71.31,4.17,1.04-1.04,2.08-1.35,4.27-1.35,6.56,0,8.33,3.44,16.88,14.06,16.88,7.29,0,12.19-4.9,12.19-12.09,0-8.44-8.13-12.81-16.36-17.81-8.33-5.31-16.88-11.25-16.88-23.34,0-10.73,10.21-17.61,22.61-17.61"/>
  <path class="cls-1" d="M270.75,99.68v-10.48c12.8,0,23.51-9.12,25.98-21.2-6.69,6.61-15.87,10.7-25.98,10.7v-10.48c12.8,0,23.51-9.12,25.98-21.2-6.69,6.61-15.87,10.7-25.98,10.7v-10.48c12.8,0,23.51-9.12,25.98-21.2-6.69,6.6-15.87,10.7-25.98,10.7v-10.48c14.53,0,26.36-11.75,26.51-26.25-25.17,2.64-44.86,23.98-44.86,49.83v58.11c0,5.62,4.56,10.18,10.19,10.18h24.5c5.62,0,10.19-4.56,10.19-10.18v-19.52c-6.73,6.93-16.12,11.26-26.52,11.26"/>
  <path class="cls-1" d="M307.77,0c.15,14.49,11.98,26.24,26.51,26.24v10.48c-10.13,0-19.3-4.11-25.99-10.73,2.46,12.1,13.18,21.23,25.99,21.23v10.48c-10.12,0-19.3-4.09-25.98-10.7,2.47,12.08,13.18,21.2,25.98,21.2v10.48c-10.12,0-19.3-4.09-25.98-10.7,2.47,12.08,13.18,21.2,25.98,21.2v10.48c-10.4,0-19.79-4.33-26.52-11.25v19.52c0,5.62,4.56,10.18,10.19,10.18h24.5c5.62,0,10.19-4.56,10.19-10.18v-58.11C352.62,23.98,332.94,2.64,307.77,0"/>
  <path class="cls-1" d="M196,77.98h10.42v4.1h-16.91v-2.37c0-6.3,11.52-5.54,11.52-8.52,0-.84-.54-1.4-2.37-1.4-2.03,0-3.32.65-3.32,2.26h-5.6c.43-4.29,4.38-5.93,9.08-5.93s7.83,1.64,7.83,4.76c0,5.69-9.55,5.37-10.63,7.1"/>
  <path class="cls-1" d="M213.09,74.3c0-4.79,3.28-8.17,9.27-8.17s9.27,3.4,9.27,8.17-3.3,8.22-9.27,8.22-9.27-3.41-9.27-8.22M226.25,74.3c0-2.57-1.42-3.86-3.88-3.86s-3.88,1.27-3.88,3.86,1.45,3.9,3.88,3.9,3.88-1.32,3.88-3.9"/>
  <line class="cls-2" x1="189.51" y1="56.62" x2="231.63" y2="56.62"/>
  <line class="cls-2" x1="189.51" y1="90.82" x2="231.63" y2="90.82"/>
  <polygon class="cls-1" points="379.54 77.98 384.39 77.98 384.39 82.08 369.3 82.08 369.3 77.98 374.15 77.98 374.15 70.93 370.4 72.01 369.3 68.07 374.69 66.56 379.54 66.56 379.54 77.98"/>
  <polygon class="cls-1" points="401.32 77.98 406.17 77.98 406.17 82.08 391.07 82.08 391.07 77.98 395.93 77.98 395.93 70.93 392.17 72.01 391.07 68.07 396.46 66.56 401.32 66.56 401.32 77.98"/>
  <line class="cls-2" x1="369.08" y1="56.62" x2="411.2" y2="56.62"/>
  <line class="cls-2" x1="369.08" y1="90.82" x2="411.2" y2="90.82"/>
  <path class="cls-1" d="M581.37,213.88h-31.99v-1.7c4.16-14.93,24.63-36.57,31.03-58.43h14.93c-6.18,21.86-33.38,43.93-36.47,53.21v.21h22.5v-23.57c3.63-.53,11.2-3.52,14.82-7.15h1.92v30.71h10.55c0,2.34-2.88,4.26-3.09,6.72h-7.46v3.52c0,6.4,3.2,9.17,10.13,9.17v1.92h-37v-1.92c6.93,0,10.13-2.77,10.13-9.17v-3.52Z"/>
</svg>