<?xml version="1.0" encoding="UTF-8"?>
<svg id="Capa_1" data-name="Capa 1" xmlns="http://www.w3.org/2000/svg" viewBox="0 0 608.42 133.18">
  <defs>
    <style>
      .cls-1 {
        fill: #fff;
      }
    </style>
  </defs>
  <path class="cls-1" d="M608.42.1H133.18v-.1H0v133.18h133.18s0-.1,0-.1h475.25S608.42.1,608.42.1ZM127.15,127.15H6.03V6.03h121.12v121.12ZM133.18,5.93h469.41v121.32H133.18V5.93Z"/>
  <polygon class="cls-1" points="216.83 37.54 216.83 95.69 205.11 95.69 177.36 60.84 177.36 95.69 163.81 95.69 163.81 37.54 175.61 37.54 203.32 72.3 203.32 37.54 216.83 37.54"/>
  <polygon class="cls-1" points="230.45 95.69 230.45 37.54 271.41 37.54 271.41 49.21 244 49.21 244 61.09 267.52 61.09 267.52 72.73 244 72.73 244 84.06 271.8 84.06 271.8 95.69 230.45 95.69"/>
  <path class="cls-1" d="M336.48,95.69h-14.28l-3.72-9.23h-24.38l-3.67,9.23h-14.32l23.81-58.19h12.74l23.81,58.19ZM306.3,51.16l-8.27,23.75h16.54l-8.27-23.75Z"/>
  <polygon class="cls-1" points="396.68 37.54 396.68 95.69 384.97 95.69 357.22 60.84 357.22 95.69 343.67 95.69 343.67 37.54 355.46 37.54 383.17 72.3 383.17 37.54 396.68 37.54"/>
  <path class="cls-1" d="M408.82,95.69v-58.15h23.6c4.41,0,8.52.63,12.31,1.88,3.79,1.25,7.08,3.11,9.86,5.56,2.78,2.45,4.96,5.48,6.54,9.09,1.58,3.61,2.38,7.77,2.38,12.5,0,4.34-.68,8.29-2.03,11.87-1.35,3.58-3.35,6.64-5.98,9.19-2.64,2.55-5.88,4.53-9.73,5.95-3.85,1.41-8.25,2.11-13.21,2.11h-23.73ZM422.38,84.06h9.84c5.76,0,10.15-1.49,13.19-4.47,3.04-2.98,4.55-7.26,4.55-12.85,0-2.67-.37-5.1-1.09-7.26-.73-2.17-1.83-4.02-3.29-5.54-1.47-1.53-3.31-2.7-5.54-3.53-2.22-.83-4.83-1.24-7.82-1.24h-9.84v34.89Z"/>
  <polygon class="cls-1" points="473.47 95.69 473.47 37.54 514.43 37.54 514.43 49.22 487.02 49.22 487.02 61.1 510.54 61.1 510.54 72.73 487.02 72.73 487.02 84.06 514.82 84.06 514.82 95.69 473.47 95.69"/>
  <path class="cls-1" d="M572.15,95.69h-15.56l-10.13-18.94h-8.64v18.94h-13.55v-58.15h25.48c3.05,0,5.86.48,8.44,1.43,2.58.96,4.8,2.3,6.65,4.02,1.85,1.73,3.3,3.79,4.34,6.2,1.04,2.41,1.56,5.08,1.56,8.02,0,2.05-.25,3.98-.75,5.79-.5,1.81-1.22,3.46-2.16,4.94-.94,1.49-2.08,2.8-3.42,3.93-1.34,1.14-2.85,2.1-4.54,2.87l12.27,20.95ZM537.81,65.12h11.38c1.11,0,2.15-.19,3.12-.58.97-.38,1.82-.92,2.54-1.6.73-.68,1.3-1.51,1.71-2.48.41-.97.62-2.05.62-3.25s-.21-2.25-.62-3.23c-.41-.99-.98-1.83-1.71-2.54-.73-.71-1.57-1.27-2.54-1.67-.97-.4-2.01-.6-3.12-.6h-11.38v15.95Z"/>
  <path class="cls-1" d="M30.28,68.5v-5.5h-.82c-11.74,0-22.44-7.36-26.64-18.32l-.3-.77-.45.17v10.52c3.63,4.91,8.53,8.76,14.11,11.15-5.58,2.39-10.48,6.24-14.11,11.15v10.51l.45.18.3-.77c4.2-10.96,14.91-18.32,26.64-18.32h.82Z"/>
  <path class="cls-1" d="M68.74,101.71v-.82h-5.51v.82c0,11.73-7.36,22.45-18.31,26.65l-.77.3.22.56h10.33c4.98-3.64,8.88-8.58,11.29-14.22,2.41,5.64,6.31,10.58,11.29,14.22h10.33l.21-.56-.77-.3c-10.95-4.2-18.31-14.91-18.31-26.65"/>
  <path class="cls-1" d="M85.42,65.74c0-18.77,15.28-34.05,34.05-34.05h.82v-5.5h-.82c-6.37,0-12.39,1.52-17.72,4.21,2.43-5.13,3.8-10.85,3.8-16.89v-.82h-5.51v.82c0,18.77-15.27,34.05-34.05,34.05S31.94,32.28,31.94,13.51v-.82h-5.5v.82c0,6.04,1.36,11.76,3.8,16.89-5.34-2.69-11.36-4.21-17.72-4.21h-.82v5.5h.82c18.78,0,34.05,15.28,34.05,34.05s-15.27,34.05-34.05,34.05h-.82v5.51h.82c6.37,0,12.39-1.52,17.72-4.21-2.43,5.13-3.8,10.85-3.8,16.89v.83h5.5v-.83c0-18.78,15.28-34.05,34.05-34.05s34.05,15.28,34.05,34.05v.83h5.51v-.83c0-6.04-1.36-11.76-3.8-16.89,5.34,2.69,11.35,4.21,17.72,4.21h.82v-5.51h-.82c-18.78,0-34.05-15.27-34.05-34.05M83.71,82.63c-5.34-2.69-11.36-4.21-17.72-4.21s-12.39,1.52-17.72,4.21c2.43-5.13,3.8-10.85,3.8-16.89s-1.37-11.76-3.8-16.89c5.33,2.69,11.35,4.21,17.72,4.21s12.39-1.52,17.72-4.21c-2.43,5.12-3.8,10.85-3.8,16.89s1.37,11.76,3.8,16.89"/>
  <path class="cls-1" d="M114.67,65.75c5.8-2.48,10.87-6.54,14.54-11.73v-9.77l-.88-.34-.29.77c-4.2,10.95-14.91,18.31-26.64,18.31h-.82v5.51h.82c11.73,0,22.44,7.36,26.64,18.31l.29.77.88-.34v-9.77c-3.67-5.19-8.74-9.25-14.54-11.73"/>
  <path class="cls-1" d="M45.22,2.36l.12-.3h-.88l-.3.78.77.3c10.96,4.2,18.32,14.91,18.32,26.64v.83h5.5v-.83c0-11.74,7.36-22.44,18.31-26.64l.77-.3-.3-.78h-9.95c-5.12,3.67-9.13,8.69-11.59,14.44-2.46-5.75-6.46-10.77-11.58-14.44h-1.44"/>
</svg>