<?xml version="1.0" encoding="UTF-8"?>
<svg id="Capa_1" data-name="Capa 1" xmlns="http://www.w3.org/2000/svg" viewBox="0 0 609.42 234.72">
  <defs>
    <style>
      .cls-1 {
        fill: #fff;
      }
    </style>
  </defs>
  <path class="cls-1" d="M108.13,165.6c11.27-.97,21.89-3.75,30.02-12.21,2.33-2.43,3.97-5.69,5.36-8.82,1.38-3.11-1.83-7.99-5.7-9.45-4.95-1.86-10-2.23-15.3-1.86-3.75.27-7.6-.58-11.37-1.16-6.08-.93-12.09-2.29-17.7-4.85-2.67-1.22-5.16-2.98-7.45-4.85-6.03-4.94-11.35-10.53-14.5-17.83-2.81-6.51-5.57-13.01-4.9-20.4.73-8.02,2.94-15.52,7.88-21.95,7.63-9.94,18.06-15.35,30.13-17.8,4.74-.96,9.56-1.63,14.38-2.1,6.92-.68,13.41,1.21,19.95,3.4,13.28,4.44,25.42,11.18,37.68,17.72,2.81,1.5,5.64,2.96,8.47,4.4,5.71,2.91,9.65,7.86,13.91,12.37,3.65,3.87,6.47,8.46,8.79,13.28,3.29,6.84,5.29,14.07,6.18,21.59.54,4.56.97,9.14,1.26,13.73.4,6.32-.96,12.46-2.35,18.56-1.34,5.91-2.51,11.92-4.52,17.61-3.15,8.96-5.95,18.13-11.51,26.06-1.22,1.75-1.99,3.8-3.13,5.62-.84,1.34-1.82,2.65-2.95,3.74-2.16,2.07-4.51,3.95-6.73,5.97-3.48,3.15-6.88,6.38-10.39,9.49-.97.86-2.16,1.52-3.34,2.07-6.51,3.02-12.89,6.39-19.61,8.84-5.66,2.06-11.68,3.25-17.62,4.44-8.57,1.72-17.28,2.03-26.01,2.34-4.68.17-9.38,1.49-14.13,1.05-2.91-.27-5.78-1.09-8.67-1.63-3.19-.59-6.4-1.08-9.58-1.72-4.46-.9-8.93-1.75-13.32-2.89-6.13-1.59-12.32-3.1-18.25-5.27-4.76-1.74-9.29-4.23-13.74-6.71-5.3-2.96-10.75-5.83-15.52-9.54-4.55-3.54-8.52-7.9-12.33-12.27-2.65-3.03-1.64-7.41,1.59-9.72,2.77-1.98,6.69-1.11,9.13,1.92,5.45,6.76,12.08,12.02,19.73,16.16,8.55,4.62,17.53,8.04,26.74,11.04,7.45,2.43,15.11,3.71,22.8,5.08,8.47,1.51,16.96,1.91,25.49,1.56,7.38-.3,14.73-1.19,22.11-1.59,5.19-.28,9.96-2.16,14.91-3.37,11.07-2.7,20.08-8.93,28.58-16.11,5.26-4.44,10.46-9.08,13.94-15,2.69-4.58,4.26-9.83,6.19-14.84,1.28-3.34,2.45-6.74,3.44-10.17,1.77-6.16,3.57-12.32,4.97-18.56.74-3.3.61-6.8.97-10.19.38-3.54-.47-6.99-.63-10.45-.21-4.6-.62-9.08-2.38-13.28-2.87-6.84-5.97-13.77-11.13-19.09-3.78-3.9-8.66-6.94-13.48-9.58-8.37-4.58-16.96-8.81-25.67-12.7-7.16-3.2-14.51-6.13-22-8.4-7.42-2.24-14.99-1.16-22.36,1.18-7.05,2.24-12.94,6.26-17.94,11.6-2.96,3.16-4.14,7.17-5.19,11.34-1.4,5.6.23,10.41,2.5,15.34,1.87,4.06,3.75,8.04,7.06,11.16,5.3,4.98,11.64,7.86,18.67,9.37,6.7,1.44,13.51,1.62,20.27,1.18,7.34-.48,13.02,2.82,18.34,7.02,6.31,4.98,8.87,12.16,9.23,19.78.26,5.47-2.09,10.64-5.41,15.16-5.36,7.31-12.63,11.73-21.14,14.59-6.9,2.32-13.73,4.47-21.07,5.09-5.63.47-11.13-.04-16.7-.48-7.21-.58-14.3-1.7-21.06-4.3-7.97-3.07-15.99-6.11-23.74-9.69-7.76-3.58-14.59-8.69-21.12-14.23-7.72-6.55-13.38-14.61-17.97-23.52-2.32-4.5-3.27-9.37-3.98-14.29-.53-3.64-1.09-7.3-1.21-10.97-.09-2.75.46-5.54.81-8.29,1.18-9.05,4.72-17.29,8.88-25.27,1.85-3.54,4.58-6.65,6.22-10.27,2.33-5.16,5.63-9.51,9.33-13.65,4.79-5.37,9.28-11.06,14.46-16.03,7.88-7.54,16.47-14.27,26.46-18.92,8.35-3.89,16.94-7,26.15-8.16,5.36-.67,10.7-1.81,16.08-1.99,5.92-.21,11.88.4,17.82.73,3.9.22,7.81.44,11.68.89,6.31.74,12.51,1.88,18.57,4.05,5.68,2.04,11.65,3.31,17.53,4.77,5.61,1.39,10.82,3.68,15.84,6.48,4.04,2.25,8.14,4.39,12.19,6.62,2.38,1.31,3.78,3.32,3.63,6.09-.15,2.66-1.45,4.84-4.08,5.42-1.78.4-3.95.36-5.61-.3-7.05-2.8-13.9-6.12-20.97-8.85-6.03-2.33-12.28-4.05-18.4-6.14-2.44-.83-4.72-2.28-7.21-2.84-3.83-.87-7.78-1.29-11.69-1.76-4.28-.51-8.57-.94-12.87-1.27-3.35-.26-6.72-.34-10.08-.44-9.32-.28-18.35,1.36-27.38,3.59-9.68,2.39-18.04,7.15-26.06,12.75-.85.6-1.52,1.47-2.26,2.22-1.19,1.19-2.64,1.73-4.2,2.37-2.07.85-3.87,2.68-5.44,4.41-3,3.29-5.53,7.02-8.66,10.16-3.25,3.26-5.55,7.09-7.93,10.93-2.55,4.11-5.48,8-7.76,12.25-2.34,4.36-4.37,8.93-6.03,13.6-1.98,5.57-3.81,11.26-4.97,17.04-1,4.99.13,10.05,2.64,14.52,3.58,6.38,7.13,12.83,11.36,18.78,2.88,4.05,6.77,7.44,11.3,9.87,4.62,2.47,9.17,5.09,13.84,7.47,2.07,1.05,4.39,1.6,6.54,2.5,1.71.72,3.4,1.54,4.99,2.49,4.6,2.76,9.72,3.84,14.91,4.61,6.38.94,12.77,1.76,19.17,2.52,1.74.21,3.53.03,5.29.03"/>
  <path class="cls-1" d="M395.1,79.4c10.89-8.86,23.65-6.08,30.36,1.38,8.39,9.31,7.8,21.82.83,30.44-7.13,8.8-21.69,10.86-31.08,2.19v23.5h-9.2v-61.98h9.09v4.48ZM395.21,96.55c0,1.69-.08,3.39.04,5.07.06.85.32,1.79.78,2.5,2.96,4.49,7.14,6.33,12.55,6.31,6.95-.02,13.19-6.38,13.3-13.26.12-7.64-3.94-12.61-11.58-14.41-3.83-.91-7.24,0-10.38,2.18-3.31,2.29-5.44,5.19-4.72,9.51.11.68.02,1.41.02,2.11"/>
  <path class="cls-1" d="M364.75,79.69v-4.79h9.17v42.97h-9.12v-4.8c-5.16,5.26-11.21,6.29-17.62,5.71-4.76-.44-8.97-2.61-12.28-5.95-7.57-7.64-9.1-19.67-2.83-29.26,3.56-5.44,8.8-8.53,15.25-9.41,6.44-.89,12.19.78,17.43,5.54M364.72,96.52c0-1.69.03-3.39-.02-5.08-.01-.53-.13-1.1-.37-1.56-1.83-3.49-4.71-5.68-8.46-6.85-5.3-1.64-9.99-.28-13.84,3.33-3.83,3.58-4.75,8.34-3.74,13.44,1.19,5.99,7.28,10.89,13.81,10.63,8.03-.32,12.62-4.63,12.62-12.63v-1.27"/>
  <path class="cls-1" d="M468.79,99.33c.87,5.14,3.65,8.59,8.18,10.35,6.89,2.68,12.89.66,18.55-4.46,1.96,1.86,3.99,3.77,6.41,6.06-1.46,1.22-2.86,2.64-4.49,3.71-7.91,5.25-20.69,5.36-28.64,0-10.99-7.41-12.96-23.08-4.33-33.1,5.18-6.02,11.9-8.42,19.46-7.87,9.2.67,16,5.29,19.4,14.22,1.22,3.2,1.3,6.55,1.03,9.9-.04.45-1.26,1.13-1.95,1.15-5.08.1-10.16.05-15.24.05h-18.38M494.46,91.62c-1.28-6.01-6.95-9.83-12.61-9.58-6.15.27-11.8,4.84-12.42,9.58h25.03Z"/>
  <path class="cls-1" d="M523.09,117.93h-9.15v-43.02h9.05v4.67c2.02-1.35,3.77-2.8,5.74-3.81,9.14-4.7,21.45-.3,24.31,11.07.29,1.14.51,2.33.51,3.49.04,9.1.02,18.2.02,27.47h-9.74v-2.18c0-7.9-.27-15.82.08-23.7.31-6.9-7.52-11.75-13.8-8.56-2.06,1.05-3.95,2.61-5.58,4.27-.85.87-1.37,2.43-1.39,3.69-.12,8.04-.06,16.09-.06,24.13v2.47Z"/>
  <path class="cls-1" d="M288.95,111.77c1.71-2.02,3.41-4.04,5.16-6.12,3.6,3.46,7.56,5.56,12.6,5.16,3.77-.3,6.25-2.55,5.92-5.8-.26-2.53-2.2-3.64-4.27-4.34-2.21-.75-4.55-1.11-6.79-1.77-4.68-1.38-8.76-3.57-10.5-8.57-2.12-6.09.95-12.85,7.02-15.03,7.99-2.88,15.24-1.21,21.8,3.97.16.12.25.33.42.57-1.6,2.07-3.21,4.14-4.55,5.88-2.83-1.23-5.49-2.67-8.32-3.52-2.24-.67-4.6.02-6.43,1.53-2.12,1.75-1.34,5.35,1.65,6.67,2.61,1.16,5.49,1.73,8.23,2.58,4.7,1.47,9.23,3.45,10.58,8.68,2,7.79-.61,14.04-9.52,16.54-7.41,2.08-17.04.53-22.99-6.43"/>
  <path class="cls-1" d="M588.01,85.7c-2.84-1.23-5.49-2.89-8.34-3.44-1.94-.37-4.43.38-6.23,1.4-2.41,1.37-1.55,5.38,1.5,6.74,2.61,1.16,5.48,1.75,8.24,2.58,5.21,1.57,10.03,4.03,10.92,9.87,1.19,7.81-1.39,13.09-9.92,15.32-8.39,2.19-16.45.58-22.99-6.32,1.73-2.06,3.44-4.11,5.19-6.21,3.61,3.49,7.6,5.75,12.62,5.11,4.37-.55,6.28-2.63,5.94-5.56-.31-2.66-2.2-3.79-4.34-4.52-2.2-.76-4.55-1.1-6.79-1.77-4.67-1.4-9.08-3.49-10.4-8.62-1.73-6.74-.51-11.73,6.8-14.84,7.89-3.36,15.32-1.4,21.95,3.83.15.12.24.33.4.57-1.61,2.07-3.22,4.14-4.55,5.86"/>
  <rect class="cls-1" x="441.09" y="74.85" width="9.06" height="42.95"/>
  <path class="cls-1" d="M577.6,175.6c-4.57,2.79-11.1,2.06-13.53-1.25-3.06-4.17-2.59-9.55,1.19-13.44,3.1-3.19,9.41-4.21,13.29-.05,0-2.54.03-4.74-.01-6.94-.02-1.15.14-2.35,1.44-2.37,1.48-.03,1.55,1.26,1.55,2.46-.02,6.63,0,13.27,0,19.9,0,.42.13.94-.06,1.25-.46.76-.99,1.85-1.66,1.99-.57.12-1.37-.92-2.2-1.54M578.13,168.18c0-4.15-2.37-7.61-5.33-7.34-4.19.38-7.43,2.93-7.38,7.41.04,3.92,2.32,6.09,6.48,6.09,4.64,0,6.23-1.57,6.23-6.16"/>
  <path class="cls-1" d="M278.34,160.37c2.81-2.37,5.92-2.09,8.79-1.49,4.87,1.02,6.46,6.5,5.3,10.86-1.14,4.33-4.11,6.71-8.57,7.12-2.32.21-4.65.42-6.97.32-.53-.02-1.43-1.31-1.45-2.03-.13-5.09-.03-10.17-.09-15.26-.02-2.02-.36-4.03-.35-6.04,0-.74.4-1.69.94-2.18.87-.79,2.36.15,2.39,1.46.04,2.3,0,4.6,0,7.25M278.35,168.4c0,1.05.08,2.12-.02,3.16-.17,1.91.92,2.66,2.55,2.75,2.58.14,4.97-.68,6.85-2.42,3.11-2.88,2.11-8.67-1.75-9.95-1.38-.46-3.07-.41-4.53-.14-2.5.47-3.1,1.45-3.1,4.07,0,.84,0,1.69,0,2.53"/>
  <path class="cls-1" d="M548.93,174.31c-2.32,1.63-4.64,3.18-7.71,3.02-3.98-.2-8.07-3.16-8.65-7.06-.42-2.8.77-5.44,2.5-7.67,2.41-3.1,5.47-4.71,9.6-4.42,4.41.3,8.42,5.09,7.64,9.43-.31,1.7-.35,3.46-.4,5.2-.05,1.7.86,1.72,2.21,1.27.69-.23,1.55,0,2.32.04-.34.77-.47,1.82-1.06,2.27-2.28,1.75-4.48,1-6.44-2.06M542.64,174.34c.13-.03.74-.14,1.32-.32,3.34-1.07,6.14-5.9,5.35-9.27-.09-.37-.37-.73-.64-1.03-2.66-3.04-6.22-3.44-9.43-1.08-2.44,1.79-4.09,5.71-3.38,8.06.57,1.9,3.57,3.64,6.77,3.63"/>
  <path class="cls-1" d="M317.35,174.21c-3.41,2.75-6.89,4.13-11.07,2.28-4.55-2.02-6.67-6.16-4.49-10.95,1.45-3.19,3.54-5.76,7.05-6.92,7.18-2.38,13.7,4.04,11.52,9.9-.49,1.3-.13,2.93-.08,4.41.05,1.57.92,1.56,2.16,1.17.72-.22,1.55-.06,2.34-.07-.37.8-.55,1.82-1.15,2.37-1.62,1.49-4.81,1.07-6.27-2.2M311.04,174.33c.13-.03.74-.14,1.32-.33,3.34-1.07,6.14-5.93,5.34-9.27-.09-.37-.38-.72-.65-1.02-2.67-3.03-6.23-3.43-9.43-1.06-2.44,1.79-4.08,5.73-3.36,8.07.58,1.9,3.59,3.63,6.78,3.62"/>
  <path class="cls-1" d="M462.27,170.09c.49,2.73,2.38,3.7,4.45,4.15,2.72.59,5.42.23,8.09-.68.84-.29,2.55-.12,2.82.4.69,1.31-.31,2.22-1.66,2.47-4.35.81-8.72,1.97-12.87-.79-3.87-2.58-5.12-6.08-3.75-10.63,1.29-4.26,4.56-6.74,8.89-6.78,2.38-.02,4.81-.23,6.71,1.61.77.74,1.56,1.55,2.01,2.49,1.09,2.26.36,3.54-2.05,3.95-.48.08-.97.11-1.43.26-3.74,1.17-7.48,2.36-11.23,3.56M474.39,163.54c-1.09-2.08-3.16-3.02-5.52-2.76-3.27.36-5.67,2.57-6.81,6.64,4.26-1.34,8.26-2.6,12.32-3.88"/>
  <path class="cls-1" d="M400.83,177.3c-5.69-.45-9.44-4.57-9.76-9.76-.33-5.38,4.64-10.12,9.96-9.66,6.62.58,9.01,3.79,9.28,10.24.2,4.82-3.71,9.2-9.47,9.18M400.45,174.34c3.55.46,6.92-2.66,6.99-6.62.06-3.8-2.75-7.11-5.89-6.9-4.41.3-7.25,2.69-7.54,6.55-.25,3.21,3.43,6.95,6.44,6.97"/>
  <path class="cls-1" d="M599.91,177.3c-5.36-.33-9.39-4.22-9.85-9.69-.44-5.26,4.43-9.84,9.9-9.79,5.48.05,9.84,4.66,9.43,10.42-.37,5.17-4.13,9.05-9.48,9.06M599.76,174.34c3.66,0,6.6-2.85,6.72-6.5.12-3.71-2.81-7.29-6.01-7.02-4.21.36-7.01,2.51-7.45,6.43-.37,3.28,3.44,7.09,6.75,7.09"/>
  <path class="cls-1" d="M450.23,164.78c-1.37-1.12-2.46-2.56-3.89-3.09-4.57-1.67-7.96,2.44-8.37,6.08-.45,3.99,1.68,5.95,5.42,6.25,2.06.16,3.99.33,5.83-.58,1.46-.72,2.3.22,2.54,1.17.14.58-.9,2.1-1.42,2.11-3.89.06-7.86,1.16-11.67-.61-2.66-1.23-4.58-4.26-4.02-7.06.44-2.2,1.16-4.38,2.07-6.43,1.49-3.33,8.04-5.94,11.35-3.55.95.68,1.87,1.51,2.53,2.46.77,1.1.93,2.36-.38,3.24"/>
  <path class="cls-1" d="M439.67,63.4c-.03-3.55,2.38-5.89,5.89-6.05,3.4-.15,5.91,3.14,5.96,5.95.05,3.16-2.83,5.99-5.98,5.95-3.11-.04-5.85-2.77-5.87-5.84"/>
  <path class="cls-1" d="M514.74,159.21c2.66-1.2,5.9-2.09,9.34-.94.73.24,1.55.86,1.86,1.52.27.58.15,1.73-.28,2.14-.35.34-1.61.25-2.09-.12-3.12-2.47-9.1-.71-9.68,3.22-.48,3.25-.08,6.63-.15,9.95-.01.61-.27,1.5-.71,1.77-1.31.79-2.67-.09-2.63-1.68.1-4.99.24-9.98.46-14.97.02-.53.63-1.41,1.05-1.47.77-.11,1.61.29,2.84.56"/>
  <path class="cls-1" d="M491.46,159.2c2.66-1.19,5.89-2.09,9.33-.93.73.24,1.55.85,1.86,1.51.27.58.15,1.73-.27,2.15-.35.34-1.61.26-2.09-.12-3.22-2.55-9.12-.68-9.7,3.42-.45,3.19-.06,6.49-.13,9.75-.01.61-.26,1.5-.7,1.77-1.3.8-2.67-.09-2.64-1.66.1-4.99.24-9.98.46-14.97.02-.53.62-1.41,1.05-1.47.77-.11,1.61.28,2.84.56"/>
  <path class="cls-1" d="M359.27,159.24c2.75-1.22,5.93-2.13,9.28-.98.81.28,1.6,1.06,2.05,1.82.25.43,0,1.48-.41,1.89-.32.32-1.48.38-1.77.08-2.36-2.41-4.96-1.32-7.34-.4-2.65,1.03-2.98,3.69-3.08,6.11-.1,2.43.22,4.88.38,7.32.08,1.19-.27,1.82-1.63,1.84-1.44.02-1.82-.6-1.77-1.92.18-4.78.25-9.56.49-14.33.04-.73.57-1.74,1.16-2.04.52-.26,1.45.3,2.65.63"/>
  <path class="cls-1" d="M336.03,159.22c2.72-1.22,5.97-2.12,9.38-.93.8.28,1.55,1.15,1.96,1.93.22.4-.19,1.37-.61,1.79-.29.29-1.34.35-1.6.08-2.33-2.47-4.93-1.35-7.33-.47-2.7.99-3,3.67-3.12,6.07-.12,2.43.2,4.88.37,7.32.09,1.33-.37,1.92-1.79,1.9-1.38-.02-1.65-.69-1.62-1.86.16-4.99.26-9.98.48-14.97.02-.52.65-1.4,1.08-1.45.78-.09,1.61.31,2.79.59"/>
  <path class="cls-1" d="M378.47,168.57c.29-2.51.58-5.75,1.1-8.96.1-.59,1.1-1.03,1.69-1.55.28.61.79,1.23.78,1.84-.03,2.08-.35,4.17-.34,6.25.01,2.08.29,4.16.47,6.23.08.96.44,1.96.27,2.87-.14.74-.75,1.72-1.38,1.94-.93.33-1.91-.14-2.01-1.42-.17-2.14-.34-4.29-.58-7.21"/>
  <path class="cls-1" d="M379.67,149.4c1.23,1.41,2.15,2.27,2.75,3.32.13.22-1.07,1.68-1.34,1.59-1.12-.37-2.86-.35-2.75-2.17.05-.74.67-1.43,1.34-2.74"/>
</svg>