<?xml version="1.0" encoding="UTF-8"?>
<svg id="Capa_1" data-name="Capa 1" xmlns="http://www.w3.org/2000/svg" viewBox="0 0 609.42 595.74">
  <defs>
    <style>
      .cls-1 {
        fill: #fff;
      }
    </style>
  </defs>
  <path class="cls-1" d="M561.49,474.46c15.59-24.91,27.66-52.19,35.92-81.15,23.23-81.49,12.44-169.2-29.61-240.64l-.03-.03C507.28,44.07,379.14-17,256.19,4.16c-86.41,14.26-160.04,62.99-207.35,137.18C1.28,215.91-12.33,307.51,11.46,392.69c20.67,74.22,69.83,139.13,134.83,178.05,27.1,16.24,55.94,29.82,83.1,19.37,20.63-7.02,40.84-33.23,43.28-56.03,1.08-9.81-.71-23.29-15.31-32.11-8.54-5.79-20.61-6.93-32.3-8.01-13.89-1.36-27.97-2.69-37.28-11.32-7.45-8.23-9.16-18.19-10.8-27.84-.53-3.25-1.05-6-1.61-8.45l-.06-.4c-.84-7.52-3.06-14.63-5.2-21.53-2.04-6.5-4.33-13.86-5.35-21.66-.25-2.32-.43-4.61-.65-6.87l-.22-2.44c-.8-9.72-1.55-18.72-4.33-27.16-.46-1.52-.93-2.94-1.39-4.33-1.27-3.96-2.6-8.01-3.28-12.31-2.41-12.19,3.06-23.3,8.88-33.63,15.1-26.45,24.53-56.8,27.23-87.71l.12-1.24c1.24-11.91,2.66-25.37,7.18-36.44,2.07-4.64,4.55-8.91,8.69-8.91.37,0,.74.03,1.18.12,5.57,1.08,6.44,7.86,6.93,22.03l.09,2.79c.71,25.52,10.89,51.54,31.15,79.57,13.89,19.27,29.45,38.3,44.46,56.68l.56.65c39.35,48.08,80.07,97.8,98.48,159.39,6.68,22.43,9.1,44.21,7.46,66.58-1.61,13.3-.31,21.84,3.74,24.75,6.74,4.89,24.1-3.31,38.06-9.9l1.42-.68c1.48-.71,2.97-1.39,4.45-2.07l13.27-7.21c40.84-23.76,74.62-55.91,100.36-95.48M329.97,89.8c-16.83,1.58-31.8,4.73-45.76,9.56-38.39,13.24-70.07,39.79-86.94,72.83-8.17,16.74-10.36,35.08-12.65,54.48-2.04,17.08-4.12,34.68-10.68,51.17-4.79,13.58-12.44,27.07-22.71,40.06-.68.93-1.45,1.89-2.23,2.88-4.52,5.85-9.13,11.79-11.26,18.29l-.15.46c-2.66,8.54,1.61,16.49,6.12,24.94,3.62,6.75,7.33,13.58,8.17,21.47.9,3.93,1.67,8.42,2.26,12,1.55,8.76,3.06,17.54,6.28,25.31,3.74,9.68,6.03,20.3,8.04,29.7,1.7,8.01,3.62,17.11,6.53,25.43,6.68,17.94,25.06,19.3,44.49,20.76l.62.06c4.39.31,8.91.65,13.18,1.21,20.3,2.26,32.3,12.96,32.89,29.36.8,23.29-22.65,51.39-46.47,55.72-9.84,2.04-20.17,1.15-31.31-2.38-70.42-27.38-128.73-84.74-160.05-157.38C-3.05,352.78-4.72,270.76,23.78,200.65,58.21,112.66,132.28,45.5,221.91,21.02c67.57-19.8,137.12-15.99,201.1,11.05,3.28,1.55,6.46,2.97,9.65,4.36l.93.4c15.56,6.9,31.37,13.89,42.45,27.16l.4.53c3.74,6.56,4.08,12.25,1.08,17.02-5.97,9.5-24.07,12.84-56.96,10.52-20.6-1.89-44.06-3.81-66.83-3.5M235.49,153.78l.37-.28c19.49-12.28,45.08,1.39,62.56,18.28,31.28,33.79,39.14,77.19,47.46,123.14,10.21,56.53,20.7,114.69,74.72,161.99l.49.47c23.45,20.26,49.32,34.56,76.85,42.45,10.15,2.69,20.82,6.53,22.71,14.79,1.39,6.22-2.51,13.06-12.31,21.44-5.94,5.08-58.81,49.22-85.33,49.22-1.55,0-2.88-.12-4.05-.37l-.4-.12c-12-3.96-12.41-20.92-12.75-35.86-.12-6.38-.31-11.85-1.11-15.25-11.23-74.07-58.81-132.51-104.85-189-16.71-20.48-33.88-41.55-49.19-63.24-12.47-18.07-20.57-33.6-25.53-48.85-6.62-20.94-11.94-61.1,10.37-78.8"/>
</svg>