<?xml version="1.0" encoding="UTF-8"?>
<svg id="Capa_1" data-name="Capa 1" xmlns="http://www.w3.org/2000/svg" viewBox="0 0 508.65 599.54">
  <defs>
    <style>
      .cls-1 {
        fill: #fff;
        fill-rule: evenodd;
      }
    </style>
  </defs>
  <path class="cls-1" d="M93.13,505.93v-53.2c64.98,0,119.34-46.28,131.88-107.61-33.94,33.53-80.51,54.29-131.88,54.29v-53.2c64.97,0,119.34-46.28,131.88-107.61-33.94,33.53-80.51,54.29-131.88,54.29v-53.2c64.97,0,119.34-46.28,131.88-107.6-33.94,33.52-80.51,54.29-131.88,54.29v-53.2c73.75,0,133.76-59.63,134.53-133.19C99.91,13.37,0,121.69,0,252.92v294.93c0,28.55,23.14,51.69,51.69,51.69h124.35c28.55,0,51.69-23.14,51.69-51.69v-99.05c-34.15,35.17-81.83,57.13-134.6,57.13"/>
  <path class="cls-1" d="M281,0c.76,73.57,60.79,133.19,134.53,133.19v53.2c-51.4,0-97.95-20.87-131.9-54.45,12.48,61.4,66.87,107.76,131.9,107.76v53.2c-51.36,0-97.94-20.76-131.87-54.29,12.54,61.32,66.9,107.6,131.87,107.6v53.2c-51.36,0-97.94-20.76-131.87-54.29,12.54,61.33,66.9,107.61,131.87,107.61v53.2c-52.77,0-100.45-21.96-134.6-57.13v99.05c0,28.55,23.14,51.69,51.69,51.69h124.35c28.55,0,51.69-23.14,51.69-51.69V252.92C508.65,121.7,408.74,13.38,281,0"/>
</svg>