<?xml version="1.0" encoding="UTF-8"?>
<svg id="Capa_1" data-name="Capa 1" xmlns="http://www.w3.org/2000/svg" viewBox="0 0 609.42 600">
  <defs>
    <style>
      .cls-1 {
        fill: #fff;
      }
    </style>
  </defs>
  <path class="cls-1" d="M609.42.88v-.43H0v599.54h609.42s0-.42,0-.42V.88ZM581.84,572.86H27.58V27.58h554.27v545.28ZM609.42,27.16v546.14"/>
  <path class="cls-1" d="M138.55,304.02v-25.19h-3.77c-53.7,0-102.69-33.67-121.92-83.81l-1.36-3.51-2.08.79v48.12c16.63,22.47,39.03,40.08,64.59,51-25.56,10.93-47.96,28.54-64.59,51.01v48.12l2.08.8,1.36-3.52c19.22-50.13,68.22-83.81,121.92-83.81h3.77Z"/>
  <path class="cls-1" d="M314.58,456.01v-3.77h-25.19v3.77c0,53.7-33.67,102.71-83.81,121.93l-3.52,1.36.98,2.54h47.29c22.77-16.67,40.62-39.25,51.65-65.07,11.04,25.81,28.89,48.39,51.66,65.08h47.29l.97-2.56-3.52-1.36c-50.12-19.22-83.8-68.23-83.8-121.93"/>
  <path class="cls-1" d="M390.91,291.42c0-85.91,69.9-155.81,155.81-155.81h3.77v-25.19h-3.77c-29.14,0-56.68,6.96-81.1,19.27,11.13-23.46,17.37-49.66,17.37-77.29v-3.77h-25.19v3.77c0,85.91-69.9,155.81-155.81,155.81S146.17,138.31,146.17,52.39v-3.77h-25.19v3.77c0,27.63,6.24,53.83,17.37,77.27-24.42-12.29-51.95-19.25-81.11-19.25h-3.77v25.19h3.77c85.91,0,155.81,69.9,155.81,155.81s-69.9,155.82-155.81,155.82h-3.77v25.19h3.77c29.15,0,56.68-6.97,81.11-19.27-11.13,23.46-17.37,49.65-17.37,77.29v3.77h25.19v-3.77c0-85.93,69.9-155.82,155.81-155.82s155.81,69.89,155.81,155.82v3.77h25.19v-3.77c0-27.64-6.24-53.83-17.37-77.29,24.42,12.3,51.96,19.27,81.1,19.27h3.77v-25.19h-3.77c-85.91,0-155.81-69.9-155.81-155.82M383.08,368.71c-24.41-12.29-51.95-19.26-81.1-19.26s-56.69,6.96-81.11,19.26c11.12-23.46,17.37-49.64,17.37-77.29s-6.25-53.83-17.37-77.28c24.41,12.29,51.95,19.26,81.11,19.26s56.69-6.97,81.1-19.26c-11.12,23.45-17.37,49.65-17.37,77.28s6.25,53.84,17.37,77.29"/>
  <path class="cls-1" d="M524.73,291.42c26.55-11.36,49.73-29.91,66.54-53.66v-44.72l-4.04-1.55-1.34,3.52c-19.22,50.12-68.22,83.8-121.92,83.8h-3.77v25.2h3.77c53.7,0,102.69,33.68,121.92,83.8l1.34,3.52,4.04-1.55v-44.7c-16.81-23.76-39.98-42.31-66.54-53.67"/>
  <path class="cls-1" d="M206.93,1.39l.53-1.39h-4.04l-1.36,3.56,3.52,1.35c50.14,19.22,83.81,68.22,83.81,121.93v3.77h25.19v-3.77c0-53.71,33.68-102.71,83.8-121.93l3.52-1.35-1.37-3.56h-45.54c-23.42,16.77-41.76,39.75-53.01,66.06-11.25-26.32-29.58-49.29-53.01-66.06h-6.58"/>
</svg>