<?xml version="1.0" encoding="UTF-8"?>
<svg id="Capa_1" data-name="Capa 1" xmlns="http://www.w3.org/2000/svg" viewBox="0 0 549.37 598.99">
  <defs>
    <style>
      .cls-1 {
        fill: #fff;
      }
    </style>
  </defs>
  <path class="cls-1" d="M275.94,422.59c28.75-2.47,55.86-9.58,76.6-31.15,5.95-6.19,10.12-14.51,13.67-22.5,3.54-7.94-4.66-20.4-14.56-24.11-12.64-4.75-25.52-5.7-39.05-4.74-9.56.68-19.39-1.49-29.01-2.95-15.51-2.36-30.85-5.85-45.17-12.37-6.81-3.1-13.18-7.6-19.01-12.37-15.39-12.6-28.97-26.87-37-45.5-7.17-16.61-14.22-33.21-12.5-52.06,1.87-20.46,7.5-39.6,20.11-56.01,19.48-25.35,46.09-39.18,76.88-45.41,12.1-2.45,24.4-4.16,36.69-5.36,17.66-1.73,34.22,3.09,50.91,8.67,33.88,11.33,64.87,28.52,96.15,45.22,7.17,3.82,14.39,7.54,21.63,11.23,14.57,7.43,24.63,20.07,35.49,31.57,9.32,9.88,16.51,21.59,22.43,33.89,8.39,17.44,13.5,35.91,15.77,55.1,1.38,11.64,2.48,23.33,3.23,35.02,1.03,16.13-2.45,31.81-5.99,47.38-3.42,15.09-6.41,30.41-11.52,44.94-8.04,22.87-15.18,46.27-29.37,66.51-3.12,4.46-5.09,9.71-7.99,14.34-2.15,3.42-4.63,6.76-7.54,9.54-5.52,5.29-11.51,10.09-17.19,15.23-8.87,8.04-17.56,16.29-26.52,24.22-2.47,2.19-5.5,3.88-8.51,5.29-16.6,7.72-32.9,16.31-50.04,22.57-14.45,5.27-29.81,8.28-44.96,11.33-21.87,4.39-44.1,5.17-66.39,5.96-11.95.42-23.93,3.81-36.06,2.68-7.44-.7-14.74-2.78-22.12-4.15-8.14-1.51-16.33-2.75-24.44-4.39-11.37-2.3-22.78-4.47-34-7.38-15.64-4.06-31.44-7.91-46.58-13.44-12.16-4.44-23.7-10.79-35.06-17.12-13.54-7.55-27.43-14.88-39.6-24.34-11.6-9.02-21.73-20.17-31.45-31.3-6.76-7.74-4.18-18.91,4.06-24.8,7.08-5.06,17.07-2.82,23.31,4.91,13.91,17.24,30.82,30.67,50.36,41.23,21.82,11.8,44.75,20.52,68.25,28.16,19.03,6.19,38.57,9.46,58.18,12.95,21.61,3.85,43.29,4.87,65.06,3.98,18.83-.77,37.6-3.04,56.43-4.05,13.26-.71,25.41-5.5,38.05-8.59,28.25-6.88,51.24-22.78,72.94-41.12,13.42-11.33,26.69-23.16,35.58-38.28,6.87-11.68,10.88-25.09,15.8-37.87,3.28-8.52,6.25-17.19,8.77-25.97,4.52-15.71,9.11-31.43,12.68-47.37,1.89-8.43,1.54-17.34,2.47-26.01.96-9.03-1.19-17.83-1.6-26.66-.55-11.75-1.58-23.18-6.09-33.89-7.33-17.45-15.23-35.13-28.4-48.71-9.65-9.95-22.09-17.72-34.39-24.45-21.36-11.69-43.27-22.48-65.51-32.41-18.27-8.17-37.01-15.64-56.15-21.43-18.94-5.73-38.25-2.97-57.07,3.01-18,5.72-33.02,15.98-45.78,29.6-7.55,8.06-10.57,18.29-13.24,28.93-3.58,14.3.6,26.58,6.39,39.16,4.77,10.37,9.56,20.53,18.02,28.48,13.51,12.7,29.7,20.05,47.64,23.91,17.09,3.68,34.47,4.14,51.72,3.01,18.72-1.22,33.23,7.21,46.81,17.92,16.09,12.7,22.62,31.02,23.55,50.47.67,13.97-5.34,27.16-13.81,38.69-13.69,18.65-32.24,29.92-53.95,37.23-17.6,5.93-35.04,11.41-53.76,12.98-14.37,1.2-28.41-.1-42.61-1.23-18.41-1.47-36.49-4.34-53.73-10.99-20.35-7.84-40.79-15.59-60.58-24.72-19.8-9.13-37.25-22.19-53.91-36.32-19.71-16.72-34.14-37.27-45.85-60.03-5.91-11.48-8.34-23.91-10.16-36.48-1.35-9.29-2.79-18.63-3.08-27.99-.22-7.03,1.17-14.13,2.08-21.17,3-23.09,12.04-44.13,22.66-64.5,4.71-9.04,11.7-16.97,15.86-26.21,5.94-13.16,14.38-24.26,23.82-34.84,12.24-13.7,23.68-28.23,36.91-40.9,20.11-19.25,42.04-36.41,67.54-48.29,21.3-9.92,43.24-17.88,66.75-20.82,13.68-1.71,27.32-4.61,41.04-5.09,15.12-.52,30.32,1.02,45.48,1.86,9.95.55,19.92,1.12,29.82,2.27,16.11,1.88,31.92,4.79,47.38,10.34,14.5,5.21,29.74,8.45,44.74,12.16,14.32,3.55,27.61,9.4,40.43,16.55,10.3,5.75,20.77,11.19,31.11,16.88,6.07,3.34,9.64,8.47,9.25,15.55-.37,6.78-3.7,12.34-10.42,13.84-4.54,1.01-10.07.93-14.32-.76-17.99-7.16-35.46-15.63-53.52-22.59-15.38-5.93-31.34-10.34-46.96-15.68-6.24-2.13-12.05-5.82-18.4-7.25-9.79-2.21-19.85-3.28-29.84-4.48-10.92-1.31-21.87-2.4-32.83-3.24-8.55-.65-17.14-.87-25.71-1.12-23.78-.7-46.82,3.48-69.87,9.17-24.7,6.1-46.04,18.23-66.5,32.54-2.18,1.52-3.87,3.76-5.78,5.67-3.03,3.04-6.74,4.41-10.73,6.04-5.3,2.16-9.87,6.84-13.88,11.24-7.64,8.39-14.1,17.91-22.1,25.92-8.3,8.32-14.16,18.09-20.23,27.89-6.5,10.49-13.99,20.43-19.8,31.27-5.97,11.12-11.15,22.8-15.38,34.69-5.05,14.22-9.72,28.73-12.67,43.49-2.54,12.72.32,25.65,6.73,37.05,9.15,16.28,18.21,32.74,28.99,47.93,7.35,10.35,17.26,18.99,28.83,25.17,11.8,6.31,23.4,13,35.31,19.07,5.28,2.69,11.2,4.08,16.69,6.39,4.36,1.84,8.67,3.92,12.72,6.35,11.75,7.05,24.8,9.8,38.04,11.76,16.27,2.41,32.6,4.49,48.93,6.44,4.44.53,8.99.08,13.5.08"/>
</svg>